<svg width="281" height="42" viewBox="0 0 281 42" fill="none" xmlns="http://www.w3.org/2000/svg">
<rect x="0.5" width="280" height="42" rx="7" fill="#03C75A"/>
<path d="M98.5158 21.615L93.2775 14.125H88.9375V28.125H93.4875V20.635L98.7142 28.125H103.054V14.125H98.5158V21.615Z" fill="white"/>
<path d="M112.806 15.16H114.507V22.8617C115.861 22.8302 117.121 22.7515 118.555 22.4523L118.775 23.9012C117.043 24.2792 115.499 24.3422 113.766 24.3422H112.806V15.16ZM116.696 19.696V18.2785H119.61V14.026H121.216V27.0985H119.61V19.696H116.696ZM122.587 27.76V13.7425H124.225V27.76H122.587ZM135.171 13.7267H136.919V27.7915H135.171V13.7267ZM125.784 19.7117C125.784 16.672 127.312 14.7505 129.422 14.7505C131.533 14.7505 133.061 16.672 133.061 19.7117C133.061 22.7672 131.533 24.6887 129.422 24.6887C127.312 24.6887 125.784 22.7672 125.784 19.7117ZM127.454 19.7117C127.454 21.8695 128.257 23.1295 129.422 23.1295C130.588 23.1295 131.391 21.8695 131.391 19.7117C131.391 17.5697 130.588 16.3255 129.422 16.3255C128.257 16.3255 127.454 17.5697 127.454 19.7117ZM148.433 13.7267H150.165V27.7915H148.433V20.1685H145.645V24.4052H139.014V14.845H140.747V18.3257H143.928V14.845H145.645V18.7825H148.433V13.7267ZM140.747 23.0035H143.928V19.696H140.747V23.0035ZM154.63 24.736H160.096V22.4365H156.142V17.8375H164.128V16.0735H156.111V14.7032H165.844V19.2077H157.843V21.0505H166.159V22.4365H161.812V24.736H167.325V26.1377H154.63V24.736ZM169.089 15.097H178.823V16.672C178.823 18.562 178.823 20.515 178.319 23.4445L176.586 23.287C177.106 20.5465 177.106 18.5147 177.106 16.672V16.483H169.089V15.097ZM167.766 25.8542V24.4367H180.445V25.8542H167.766ZM190.746 13.7582H192.478V23.8855H190.746V13.7582ZM181.138 18.1997C181.138 16.1365 182.776 14.6717 184.887 14.6717C187.013 14.6717 188.635 16.1365 188.635 18.1997C188.635 20.2315 187.013 21.712 184.887 21.712C182.776 21.712 181.138 20.2315 181.138 18.1997ZM182.824 18.1997C182.824 19.4125 183.721 20.2 184.887 20.2C186.052 20.2 186.95 19.4125 186.95 18.1997C186.95 16.9555 186.052 16.168 184.887 16.168C183.721 16.168 182.824 16.9555 182.824 18.1997ZM183.28 27.4923V22.8775H184.997V26.1062H192.856V27.4923H183.28Z" fill="white"/>
</svg>
