<svg width="12" height="12" viewBox="0 0 12 12" fill="none" xmlns="http://www.w3.org/2000/svg">
<path d="M9.18224 5.23977C9.1366 4.75873 8.63462 4.59999 8.23405 4.42682C7.89433 4.28251 7.56982 4.10933 7.26052 3.91692C7.03741 3.76299 6.93093 3.50323 6.83966 3.26752V3.1184C6.9715 3.09435 7.01206 3.05105 7.01206 2.92598C7.01206 2.25253 7.01206 1.57427 7.01206 0.900822C7.01206 0.847908 6.96643 0.804615 6.91065 0.804615C6.61149 0.799805 6.30726 0.799805 6.00303 0.799805C5.6988 0.799805 5.39457 0.799805 5.08527 0.799805C5.02949 0.799805 4.98386 0.843098 4.98386 0.896012C4.98386 1.56946 4.98386 2.24772 4.98386 2.92117C4.98386 3.04624 5.02442 3.08954 5.15625 3.11359V3.26271C5.06499 3.49842 4.96358 3.76299 4.7354 3.91211C4.4261 4.10452 4.10159 4.2777 3.76186 4.42201C3.36129 4.59518 2.86438 4.75392 2.81368 5.23496C2.78833 5.40332 2.80354 5.57168 2.81368 5.74005C2.85424 6.22589 2.88974 6.70693 2.9303 7.19277C2.98608 7.84698 3.04185 8.50119 3.09763 9.16021C3.14326 9.70859 3.18383 10.257 3.23453 10.8054C3.25481 11.0266 3.45256 11.1998 3.69088 11.1998C5.11569 11.1998 4.86217 11.1998 5.99796 11.1998C7.13375 11.1998 6.88023 11.1998 8.30504 11.1998C8.54336 11.1998 8.7411 11.0314 8.76139 10.8054C8.80702 10.257 8.85266 9.70859 8.89829 9.16021C8.95407 8.506 9.00984 7.85179 9.06562 7.19277C9.10618 6.70693 9.14168 6.22589 9.18224 5.74005C9.19745 5.57168 9.21266 5.40332 9.18224 5.23496V5.23977Z" fill="#E58257"/>
</svg>
