<svg width="142" height="200" viewBox="0 0 142 200" fill="none" xmlns="http://www.w3.org/2000/svg">
<path d="M98.4882 77.3259C99.2607 67.2361 100.127 57.1463 100.891 47.0565C101.324 40.8858 99.4868 38.9922 95.4076 37.0515C92.0631 35.5253 88.7847 33.8861 85.5439 32.1526C82.1806 30.4003 80.1551 27.6777 79.1094 24.1354V22.6657C80.3341 22.4208 80.7109 21.978 80.7109 20.7721C80.7109 14.1681 80.7298 7.564 80.7109 0.95993C80.7109 0.441779 80.287 0.0272584 79.7782 0.0178375C73.9279 -0.00100436 68.068 -0.0104253 62.2176 0.0178375C61.6995 0.0178375 61.285 0.441779 61.2756 0.95993C61.2661 7.564 61.2756 14.1681 61.2756 20.7721C61.2756 21.9874 61.6524 22.4208 62.8771 22.6657V24.1354C62.0198 26.4529 61.0683 29.0154 58.9863 30.5039C56.1035 32.3976 53.1076 34.0651 49.9705 35.497C46.268 37.1834 41.6235 38.7378 41.1807 43.4389C40.9358 45.097 41.0771 46.7268 41.209 48.3754C41.5764 53.1047 41.925 57.8435 42.3018 62.5728C42.8105 68.979 43.3381 75.3852 43.8374 81.8009C44.2614 87.1708 44.6476 92.5407 45.0904 97.9106C45.2694 100.087 47.1159 101.745 49.311 101.754C63.7627 101.754 59.6081 101.754 74.0597 101.754L98.4788 77.3354L98.4882 77.3259Z" fill="url(#paint0_linear_488_1481)"/>
<path d="M74.0695 101.745C74.0695 95.6875 74.0318 89.6298 74.0695 83.5816C74.0883 80.9626 76.3965 78.2399 78.9495 77.5899C79.722 77.3921 80.504 77.2979 81.3048 77.2979C87.0327 77.3167 92.7606 77.3167 98.4885 77.3167C97.9892 80.0393 96.8022 82.4699 94.8897 84.4295C90.3677 89.074 85.7797 93.662 81.1352 98.1746C79.1945 100.068 76.7827 101.236 74.0789 101.726L74.0695 101.745Z" fill="white"/>
<path d="M26.4115 143.742C26.4115 145.828 25.9564 147.649 25.0462 149.217C24.136 150.785 22.7959 152.012 21.0513 152.884C19.3067 153.757 17.145 154.199 14.5913 154.199H0.824219L1.15291 135.725L0.824219 116.884H13.8075C16.1083 116.884 18.0678 117.25 19.6986 117.984C21.3294 118.717 22.581 119.779 23.4533 121.196C24.3256 122.599 24.7681 124.294 24.7681 126.266C24.7681 127.619 24.4899 128.922 23.921 130.186C23.3522 131.451 22.4293 132.551 21.1525 133.499C19.8756 134.448 18.169 135.168 16.0578 135.636C15.2107 135.75 14.2626 135.877 13.2133 136.016C12.1514 136.167 10.9125 136.281 9.48395 136.37C8.05541 136.458 6.3361 136.509 4.33868 136.509V133.436C4.95813 133.436 5.60287 133.436 6.26025 133.461C6.91763 133.487 7.61294 133.499 8.34617 133.512C9.07941 133.525 9.83792 133.537 10.6217 133.537H13.0616C14.743 133.537 16.1589 133.322 17.3093 132.88C18.4597 132.437 19.3447 131.767 19.9641 130.856C20.5836 129.946 20.8996 128.757 20.8996 127.291C20.8996 125.533 20.3054 124.129 19.1171 123.067C17.9288 122.005 15.7796 121.474 12.6824 121.474C12.1388 121.474 11.4308 121.474 10.5712 121.499C9.7115 121.512 8.81392 121.524 7.85314 121.524C6.89235 121.524 6.04534 121.524 5.27418 121.55C4.50302 121.575 3.95942 121.575 3.63073 121.575L5.32475 119.767V150.621L4.12376 149.306C5.36268 149.382 6.80386 149.445 8.44731 149.495C10.0908 149.546 11.6963 149.584 13.2639 149.584C16.0072 149.584 18.131 149.04 19.6481 147.94C21.1651 146.84 21.9236 145.133 21.9236 142.781C21.9236 141.175 21.5064 139.948 20.6847 139.114C19.863 138.279 18.8011 137.685 17.5116 137.356C16.2095 137.027 14.8315 136.863 13.3777 136.863H11.6457C11.0768 136.863 10.5332 136.863 10.0023 136.888C9.47131 136.901 8.9277 136.913 8.35882 136.913C7.78993 136.913 7.22104 136.913 6.62687 136.939C6.04534 136.951 5.42588 136.964 4.7685 136.964V134.663C5.57759 134.625 6.34875 134.612 7.09462 134.612C7.8405 134.612 8.75072 134.612 9.83792 134.587C10.9125 134.574 12.1514 134.561 13.542 134.561C14.743 134.561 16.0957 134.701 17.5748 134.979C19.0539 135.257 20.4572 135.725 21.7972 136.408C23.1246 137.091 24.2371 138.014 25.1094 139.202C25.9817 140.391 26.4241 141.896 26.4241 143.729L26.4115 143.742Z" fill="#F0996E"/>
<path d="M44.2616 123.522C47.2957 123.522 49.8873 124.091 52.049 125.216C54.2108 126.354 55.8542 127.96 57.0047 130.072C58.1551 132.171 58.7366 134.738 58.7366 137.773C58.7366 140.618 58.3194 143.109 57.4977 145.234C56.676 147.358 55.5508 149.116 54.1223 150.519C52.6938 151.923 51.0756 152.973 49.2425 153.668C47.4094 154.364 45.5005 154.705 43.4904 154.705C40.4943 154.705 37.9153 154.136 35.7409 153.01C33.5665 151.872 31.8978 150.241 30.7221 148.104C29.5464 145.967 28.9648 143.4 28.9648 140.403C28.9648 137.406 29.3694 135.067 30.1658 132.943C30.9749 130.831 32.0874 129.073 33.5033 127.682C34.9318 126.291 36.5753 125.254 38.4337 124.559C40.292 123.863 42.2389 123.522 44.2489 123.522H44.2616ZM43.5536 128.011C41.139 128.011 39.1542 128.441 37.574 129.301C36.0064 130.161 34.856 131.413 34.1228 133.056C33.3895 134.7 33.0229 136.724 33.0229 139.139C33.0229 141.364 33.4022 143.312 34.1733 144.981C34.9445 146.65 36.1328 147.927 37.7384 148.85C39.3439 149.761 41.4804 150.216 44.1478 150.216C46.5624 150.216 48.5472 149.786 50.1275 148.926C51.6951 148.066 52.8455 146.789 53.5787 145.095C54.3119 143.4 54.6785 141.339 54.6785 138.924C54.6785 136.698 54.2993 134.764 53.5534 133.12C52.8075 131.476 51.6192 130.211 49.9884 129.339C48.3576 128.466 46.2211 128.024 43.5536 128.024V128.011Z" fill="#F0996E"/>
<path d="M66.1314 123.952H78.293V128.441H59.3301V125.975L64.2099 124.382L68.3691 118.3H68.584L68.2553 127.505V144.336C68.2553 145.942 68.4576 147.181 68.8621 148.041C69.2666 148.901 69.8861 149.47 70.7205 149.774C71.5548 150.064 72.6041 150.216 73.843 150.216C74.7912 150.216 75.6508 150.166 76.422 150.052C77.1931 149.938 77.8884 149.812 78.5079 149.672V154.06C77.9643 154.237 77.3069 154.402 76.561 154.528C75.8152 154.655 74.867 154.718 73.7419 154.718C71.656 154.718 69.8987 154.402 68.4576 153.757C67.0164 153.125 65.9418 152.062 65.2212 150.583C64.5133 149.103 64.1719 147.08 64.2099 144.526L64.488 126.279L66.1314 123.977V123.952Z" fill="#F0996E"/>
<path d="M88.8365 123.952H100.998V128.441H82.0352V125.975L86.9149 124.382L91.0741 118.3H91.2891L90.9604 127.505V144.336C90.9604 145.942 91.1626 147.181 91.5672 148.041C91.9717 148.901 92.5912 149.47 93.4255 149.774C94.2599 150.064 95.3092 150.216 96.5481 150.216C97.4963 150.216 98.3559 150.166 99.1271 150.052C99.8982 149.938 100.594 149.812 101.213 149.672V154.06C100.669 154.237 100.012 154.402 99.2661 154.528C98.5203 154.655 97.5721 154.718 96.447 154.718C94.361 154.718 92.6038 154.402 91.1626 153.757C89.7215 153.125 88.6469 152.062 87.9263 150.583C87.2184 149.103 86.877 147.08 86.9149 144.526L87.1931 126.279L88.8365 123.977V123.952Z" fill="#F0996E"/>
<path d="M110.151 130.92L110.644 154.212H105.878L106.207 131.514L105.436 112.281H110.151V130.92Z" fill="#F0996E"/>
<path d="M140.29 147.523V152.075C138.824 152.733 137.142 153.327 135.246 153.858C133.35 154.389 131.302 154.667 129.115 154.705C126.081 154.705 123.476 154.124 121.302 152.948C119.128 151.784 117.471 150.064 116.346 147.826C115.209 145.575 114.652 142.793 114.652 139.468C114.652 136.686 115.082 134.283 115.942 132.26C116.801 130.237 117.927 128.58 119.343 127.303C120.746 126.026 122.339 125.065 124.109 124.42C125.878 123.788 127.711 123.459 129.62 123.459C132.326 123.459 134.525 123.914 136.219 124.825C137.914 125.735 139.165 127.063 139.974 128.795C140.783 130.528 141.175 132.665 141.175 135.181C141.175 135.624 141.175 136.079 141.15 136.547C141.125 137.027 141.087 137.52 141.011 138.026L116.624 137.862L116.738 135.118L139.595 134.903L137.572 136.433C137.711 134.384 137.42 132.741 136.7 131.501C135.967 130.262 134.892 129.352 133.464 128.795C132.035 128.226 130.354 127.948 128.419 127.948C126.194 127.948 124.349 128.327 122.908 129.073C121.466 129.82 120.392 130.945 119.696 132.45C119.001 133.954 118.66 135.813 118.66 138.039C118.66 140.492 119.039 142.629 119.785 144.45C120.531 146.284 121.681 147.7 123.236 148.699C124.791 149.698 126.801 150.204 129.292 150.204C131.264 150.204 133.211 149.951 135.132 149.432C137.054 148.914 138.773 148.281 140.315 147.51L140.29 147.523Z" fill="#F0996E"/>
<path d="M43.0734 199.937L15.2359 167.325L18.2446 165.238L18.6871 199.494H14.1992L14.4773 162.052H16.1208L43.6802 194.234L41.3794 194.942L40.6714 162.166H45.1088L44.7801 199.937H43.0861H43.0734Z" fill="#F0996E"/>
<path d="M64.6288 168.805C67.6628 168.805 70.2544 169.374 72.4162 170.499C74.578 171.637 76.2214 173.243 77.3719 175.355C78.5223 177.454 79.1038 180.021 79.1038 183.056C79.1038 185.901 78.6866 188.392 77.8649 190.517C77.0432 192.641 75.918 194.399 74.4895 195.802C73.061 197.206 71.4428 198.256 69.6097 198.951C67.7766 199.646 65.8677 199.988 63.8576 199.988C60.8615 199.988 58.2825 199.419 56.1081 198.293C53.9337 197.155 52.265 195.524 51.0893 193.387C49.9136 191.25 49.332 188.683 49.332 185.686C49.332 182.689 49.7366 180.35 50.533 178.238C51.3421 176.114 52.4546 174.369 53.8705 172.978C55.299 171.587 56.9425 170.55 58.8008 169.854C60.6592 169.159 62.6061 168.818 64.6161 168.818L64.6288 168.805ZM63.9082 173.294C61.4936 173.294 59.5088 173.724 57.9285 174.584C56.3609 175.444 55.2105 176.696 54.4773 178.339C53.7441 179.983 53.3775 182.006 53.3775 184.422C53.3775 186.647 53.7567 188.595 54.5279 190.264C55.299 191.933 56.4874 193.21 58.0929 194.133C59.6984 195.044 61.8349 195.499 64.5024 195.499C66.917 195.499 68.9018 195.069 70.482 194.209C72.0496 193.349 73.2 192.072 73.9332 190.378C74.6665 188.683 75.0331 186.622 75.0331 184.207C75.0331 181.981 74.6538 180.046 73.908 178.403C73.1621 176.759 71.9737 175.494 70.3429 174.622C68.7121 173.749 66.5756 173.307 63.9082 173.307V173.294Z" fill="#F0996E"/>
<path d="M86.4869 169.234H98.6485V173.723H79.6855V171.257L84.5653 169.664L88.7245 163.582H88.9394L88.6108 172.787V189.618C88.6108 191.224 88.813 192.463 89.2176 193.323C89.6221 194.183 90.2416 194.752 91.0759 195.056C91.9103 195.346 92.9596 195.498 94.1985 195.498C95.1466 195.498 96.0063 195.448 96.7775 195.334C97.5486 195.22 98.2439 195.094 98.8634 194.954V199.342C98.3198 199.519 97.6624 199.684 96.9165 199.81C96.1706 199.937 95.2225 200 94.0974 200C92.0114 200 90.2542 199.684 88.813 199.039C87.3718 198.407 86.2973 197.344 85.5767 195.865C84.8687 194.385 84.5274 192.362 84.5653 189.808L84.8435 171.548L86.4869 169.247V169.234Z" fill="#F0996E"/>
<path d="M126.978 192.805V197.357C125.511 198.015 123.83 198.609 121.934 199.14C120.037 199.671 117.989 199.949 115.802 199.987C112.768 199.987 110.164 199.405 107.989 198.229C105.815 197.066 104.159 195.346 103.034 193.108C101.896 190.857 101.34 188.075 101.34 184.75C101.34 181.968 101.77 179.565 102.629 177.542C103.489 175.519 104.614 173.862 106.03 172.585C107.433 171.308 109.026 170.347 110.796 169.702C112.566 169.057 114.399 168.741 116.308 168.741C119.013 168.741 121.213 169.196 122.907 170.107C124.601 171.017 125.853 172.345 126.662 174.077C127.471 175.81 127.863 177.947 127.863 180.463C127.863 180.906 127.863 181.361 127.837 181.829C127.812 182.309 127.774 182.802 127.698 183.308L103.312 183.144L103.426 180.4L126.282 180.185L124.26 181.715C124.399 179.666 124.108 178.023 123.387 176.783C122.654 175.544 121.58 174.634 120.151 174.065C118.723 173.496 117.041 173.217 115.107 173.217C112.882 173.217 111.036 173.597 109.595 174.343C108.154 175.089 107.079 176.214 106.384 177.719C105.689 179.224 105.347 181.083 105.347 183.308C105.347 185.761 105.727 187.898 106.472 189.719C107.218 191.54 108.369 192.956 109.924 193.968C111.479 194.967 113.489 195.473 115.979 195.473C117.951 195.473 119.898 195.22 121.82 194.701C123.741 194.196 125.461 193.551 127.003 192.779L126.978 192.805Z" fill="#F0996E"/>
<defs>
<linearGradient id="paint0_linear_488_1481" x1="48.2545" y1="36.462" x2="95.7399" y2="83.0994" gradientUnits="userSpaceOnUse">
<stop stop-color="#F0996E"/>
<stop offset="1" stop-color="#E58257"/>
</linearGradient>
</defs>
</svg>
