<svg width="101" height="100" viewBox="0 0 101 100" fill="none" xmlns="http://www.w3.org/2000/svg">
<g style="mix-blend-mode:multiply" opacity="0.4">
<circle cx="50.5" cy="50" r="50" fill="#666666"/>
</g>
<path d="M58.459 30.832C59.396 30.832 60.1956 31.5094 60.3496 32.4336L61.3592 38.4987H69.666C70.7246 38.4987 71.5827 39.3568 71.5827 40.4154V67.2487C71.5827 68.3072 70.7246 69.1654 69.666 69.1654H31.3327C30.2741 69.1654 29.416 68.3072 29.416 67.2487V40.4154C29.416 39.3568 30.2741 38.4987 31.3327 38.4987H39.6376L40.6491 32.4336C40.8031 31.5094 41.6027 30.832 42.5397 30.832H58.459ZM41.2284 42.3301H33.2493V65.3301H67.7493V42.3301L59.7769 42.3316C59.7635 42.3319 59.7502 42.332 59.7368 42.332H41.2619L41.2284 42.3301ZM50.4993 44.2487C55.7921 44.2487 60.0827 48.5393 60.0827 53.832C60.0827 59.1248 55.7921 63.4154 50.4993 63.4154C45.2066 63.4154 40.916 59.1248 40.916 53.832C40.916 48.5393 45.2066 44.2487 50.4993 44.2487ZM50.4993 48.082C47.3237 48.082 44.7493 50.6564 44.7493 53.832C44.7493 57.0077 47.3237 59.582 50.4993 59.582C53.675 59.582 56.2493 57.0077 56.2493 53.832C56.2493 50.6564 53.675 48.082 50.4993 48.082ZM63.916 44.2487C64.9746 44.2487 65.8327 45.1068 65.8327 46.1654C65.8327 47.2239 64.9746 48.082 63.916 48.082C62.8575 48.082 61.9993 47.2239 61.9993 46.1654C61.9993 45.1068 62.8575 44.2487 63.916 44.2487ZM56.8339 34.6654H44.1628L43.5227 38.4987H57.4741L56.8339 34.6654Z" fill="white"/>
</svg>
