<svg width="20" height="20" viewBox="0 0 20 20" fill="none" xmlns="http://www.w3.org/2000/svg">
<g id="Download">
<path id="Mask" d="M14.9998 15.8307C15.4601 15.8307 15.8332 16.2038 15.8332 16.6641C15.8332 17.1243 15.4601 17.4974 14.9998 17.4974H4.99984C4.5396 17.4974 4.1665 17.1243 4.1665 16.6641C4.1665 16.2038 4.5396 15.8307 4.99984 15.8307H14.9998ZM9.99984 4.16406C10.4601 4.16406 10.8332 4.53716 10.8332 4.9974V9.9974H11.6729C12.0674 9.9974 12.3872 10.3172 12.3872 10.7117C12.3872 10.8381 12.3536 10.9623 12.2899 11.0716L10.6168 13.9397C10.4181 14.2805 9.98068 14.3956 9.63993 14.1968C9.5335 14.1347 9.44494 14.0461 9.38285 13.9397L7.70978 11.0716C7.51101 10.7308 7.62611 10.2935 7.96686 10.0947C8.0761 10.031 8.2003 9.9974 8.32677 9.9974H9.1665V4.9974C9.1665 4.53716 9.5396 4.16406 9.99984 4.16406Z" fill="#E58257"/>
</g>
</svg>
