<svg width="29" height="27" viewBox="0 0 29 27" fill="none" xmlns="http://www.w3.org/2000/svg">
<path d="M14.717 21.8813L7.02181 25.8736C6.91887 25.9271 6.79211 25.8869 6.7387 25.7839C6.71779 25.7436 6.71051 25.6977 6.71794 25.6529L8.13693 17.1006C8.15557 16.9882 8.11841 16.8739 8.03732 16.794L1.86241 10.7091C1.7798 10.6277 1.77882 10.4947 1.86023 10.4121C1.89209 10.3798 1.93358 10.3586 1.97848 10.3519L10.5507 9.05859C10.6633 9.0416 10.7606 8.97093 10.8115 8.86911L14.6904 1.11608C14.7423 1.01236 14.8685 0.970346 14.9722 1.02224C15.0128 1.04255 15.0457 1.07548 15.066 1.11608L18.945 8.86911C18.9959 8.97093 19.0932 9.0416 19.2058 9.05859L27.778 10.3519C27.8927 10.3692 27.9716 10.4761 27.9543 10.5908C27.9475 10.6357 27.9264 10.6772 27.894 10.7091L21.7191 16.794C21.638 16.8739 21.6009 16.9882 21.6195 17.1006L23.0385 25.6529C23.0575 25.7673 22.9801 25.8754 22.8657 25.8944C22.8209 25.9018 22.7749 25.8946 22.7346 25.8736L15.0394 21.8813C14.9384 21.8289 14.8181 21.8289 14.717 21.8813Z" fill="#F0996E" stroke="#F0996E" stroke-width="1.8" stroke-linejoin="round"/>
</svg>
