<svg width="29" height="28" viewBox="0 0 29 28" fill="none" xmlns="http://www.w3.org/2000/svg">
<path d="M14.8202 22.5418V1.42593L13.4352 3.84434L10.6652 9.38434L2.35523 11.4618L7.89523 17.6943L6.51023 26.6968L14.8202 22.5418Z" fill="#F0996E"/>
<path fill-rule="evenodd" clip-rule="evenodd" d="M14.8203 4.08839L11.7261 10.2729C11.5245 10.6758 11.1396 10.9555 10.6941 11.0227L3.85611 12.0544L8.78179 16.9082C9.10268 17.2244 9.24972 17.677 9.17598 18.1214L8.04406 24.9435L14.1825 21.7589C14.5824 21.5514 15.0582 21.5514 15.4581 21.7589L21.5966 24.9435L20.4646 18.1214C20.3909 17.677 20.5379 17.2244 20.8588 16.9082L25.7845 12.0544L18.9465 11.0227C18.501 10.9555 18.1161 10.6758 17.9145 10.2729L14.8203 4.08839ZM13.7055 1.67342C14.0136 1.05775 14.7624 0.808359 15.378 1.11638C15.6191 1.23696 15.8145 1.43241 15.9351 1.67342L19.6117 9.02207L27.7368 10.2479C28.4175 10.3506 28.8861 10.9857 28.7834 11.6664C28.7432 11.9329 28.6177 12.1791 28.4258 12.3683L22.5729 18.1358L23.9179 26.2421C24.0306 26.9212 23.5714 27.5631 22.8923 27.6758C22.6264 27.7199 22.3534 27.6767 22.1142 27.5525L14.8203 23.7684L7.52644 27.5525C6.91536 27.8696 6.16297 27.6312 5.84594 27.0201C5.72184 26.7809 5.6786 26.5079 5.72271 26.2421L7.06769 18.1358L1.21485 12.3683C0.724498 11.8851 0.718706 11.0959 1.20191 10.6055C1.39107 10.4136 1.63735 10.2881 1.90381 10.2479L10.0289 9.02207L13.7055 1.67342Z" fill="#F0996E"/>
</svg>
