<svg width="30" height="30" viewBox="0 0 30 30" fill="none" xmlns="http://www.w3.org/2000/svg">
<path d="M14.8333 17.0833C20.715 17.0833 25.5019 21.7706 25.6625 27.6134L25.6667 27.9167H23.5C23.5 23.1302 19.6198 19.25 14.8333 19.25C10.1372 19.25 6.31341 22.9852 6.17079 27.6467L6.16667 27.9167H4C4 21.9336 8.85025 17.0833 14.8333 17.0833ZM14.8333 3C18.4232 3 21.3333 5.91015 21.3333 9.5C21.3333 13.0899 18.4232 16 14.8333 16C11.2435 16 8.33333 13.0899 8.33333 9.5C8.33333 5.91015 11.2435 3 14.8333 3ZM14.8333 5.16667C12.4401 5.16667 10.5 7.10677 10.5 9.5C10.5 11.8932 12.4401 13.8333 14.8333 13.8333C17.2266 13.8333 19.1667 11.8932 19.1667 9.5C19.1667 7.10677 17.2266 5.16667 14.8333 5.16667Z" fill="#E58257"/>
</svg>
