<svg width="29" height="26" viewBox="0 0 29 26" fill="none" xmlns="http://www.w3.org/2000/svg">
<path d="M10.2727 4.60549C9.8442 4.99184 9.81526 5.64671 10.208 6.06818L16.669 13L10.208 19.9319C9.84799 20.3183 9.84231 20.9007 10.1739 21.2927L10.2727 21.3946C10.7012 21.7809 11.367 21.7525 11.7597 21.331L18.8717 13.6996C18.8762 13.6947 18.8807 13.6898 18.8851 13.6849L18.807 13.7632C18.8552 13.7197 18.8983 13.6729 18.9364 13.6234C18.9504 13.605 18.9637 13.5864 18.9763 13.5675C18.9892 13.5484 19.0014 13.5286 19.0129 13.5085C19.0234 13.4902 19.0331 13.4721 19.0422 13.4537C19.0529 13.432 19.063 13.4096 19.0723 13.3869C19.0806 13.3669 19.0881 13.3465 19.095 13.326C19.1018 13.3057 19.1079 13.2854 19.1134 13.265C19.1195 13.2424 19.1248 13.2195 19.1293 13.1964C19.1339 13.1728 19.1377 13.149 19.1406 13.1251C19.1428 13.1077 19.1445 13.09 19.1458 13.0723C19.1475 13.0479 19.1483 13.0237 19.1483 12.9994C19.1483 12.9757 19.1474 12.9518 19.1458 12.928C19.1445 12.9101 19.1428 12.8924 19.1406 12.8747C19.1377 12.8511 19.1339 12.8273 19.1293 12.8036C19.1248 12.7806 19.1195 12.7577 19.1134 12.735C19.1079 12.7146 19.1018 12.6944 19.095 12.6743C19.0881 12.6536 19.0806 12.6332 19.0723 12.6131C19.063 12.5905 19.0529 12.568 19.042 12.5459C19.0331 12.528 19.0234 12.5098 19.0131 12.4919C19.0014 12.4715 18.9892 12.4517 18.9762 12.4323C18.9637 12.4137 18.9504 12.3951 18.9364 12.3769C18.8983 12.3272 18.8552 12.2803 18.807 12.2369L18.8851 12.3152C18.8807 12.3103 18.8762 12.3054 18.8717 12.3005L11.7597 4.66909C11.367 4.24762 10.7012 4.21914 10.2727 4.60549Z" fill="white"/>
</svg>
