<svg width="8" height="4" viewBox="0 0 8 4" fill="none" xmlns="http://www.w3.org/2000/svg">
<path d="M0.770676 3.85188C0.919272 4.03783 1.17114 4.0504 1.33325 3.87994L3.99935 1.076L6.66545 3.87994C6.81404 4.03619 7.03807 4.03866 7.18883 3.89475L7.22802 3.85188C7.37662 3.66592 7.36567 3.37699 7.20356 3.20653L4.2684 0.120061C4.26653 0.118092 4.26465 0.116148 4.26275 0.114227L4.29286 0.14812C4.27615 0.127207 4.25814 0.108488 4.23909 0.0919748C4.23201 0.0859042 4.22487 0.0801257 4.2176 0.0746503C4.21025 0.0690639 4.20265 0.0637527 4.19493 0.0587583C4.18789 0.0542256 4.1809 0.0500179 4.17384 0.0460659C4.16551 0.0414004 4.15688 0.0370105 4.14816 0.0329867C4.14043 0.0293989 4.13261 0.0261133 4.12473 0.0231195C4.11691 0.0201891 4.10912 0.0175363 4.10127 0.0151616C4.09255 0.0124839 4.08374 0.0101837 4.07488 0.0082317C4.06579 0.00625989 4.05663 0.00461649 4.04744 0.00333888C4.04077 0.00238431 4.03396 0.00164202 4.02715 0.00110013C4.01776 0.000367189 4.00844 -3.49474e-06 3.99911 6.51465e-08C3.98998 7.64004e-06 3.9808 0.000378062 3.97163 0.00111014C3.96474 0.0016418 3.95793 0.00238432 3.95114 0.00332743C3.94207 0.0046165 3.93291 0.00626029 3.92381 0.00826937C3.91496 0.0101841 3.90615 0.0124838 3.8974 0.0151325C3.88958 0.0175362 3.88179 0.0201892 3.87406 0.0231195C3.86609 0.0261134 3.85827 0.0293987 3.85052 0.0329767C3.84181 0.0370102 3.83319 0.0414007 3.82469 0.0461565C3.8178 0.0500182 3.81081 0.0542259 3.80392 0.0586897C3.79605 0.063753 3.78845 0.0690638 3.78098 0.0746904C3.77383 0.0801256 3.76668 0.0859043 3.75967 0.0919867C3.74056 0.108488 3.72254 0.127207 3.70583 0.14812L3.73595 0.114227C3.73405 0.116148 3.73217 0.118092 3.73029 0.120061L0.795136 3.20653C0.633032 3.37699 0.622081 3.66592 0.770676 3.85188Z" fill="#E58257"/>
</svg>
