<svg width="16" height="16" viewBox="0 0 16 16" fill="none" xmlns="http://www.w3.org/2000/svg">
<path d="M5.53213 2.83543C5.28419 3.07318 5.26744 3.47617 5.49472 3.73554L9.23331 8.0013L5.49472 12.2671C5.28638 12.5048 5.28309 12.8633 5.47497 13.1045L5.53213 13.1672C5.78008 13.4049 6.16532 13.3874 6.3926 13.128L10.5079 8.43179C10.5105 8.4288 10.5131 8.42578 10.5157 8.42275L10.4705 8.47093C10.4984 8.44419 10.5233 8.41536 10.5453 8.38488C10.5534 8.37357 10.5611 8.36213 10.5684 8.3505C10.5759 8.33874 10.583 8.32658 10.5896 8.31423C10.5957 8.30296 10.6013 8.29179 10.6065 8.28049C10.6128 8.26715 10.6186 8.25336 10.624 8.2394C10.6288 8.22704 10.6332 8.21452 10.6371 8.20191C10.6411 8.1894 10.6446 8.17693 10.6478 8.16437C10.6513 8.15042 10.6544 8.13632 10.657 8.12216C10.6596 8.1076 10.6618 8.09296 10.6635 8.07825C10.6648 8.06757 10.6658 8.05668 10.6665 8.04578C10.6675 8.03077 10.668 8.01584 10.668 8.00092C10.668 7.98632 10.6675 7.97162 10.6665 7.95695C10.6658 7.94592 10.6648 7.93504 10.6635 7.92417C10.6618 7.90965 10.6596 7.895 10.6569 7.88044C10.6544 7.86628 10.6513 7.85218 10.6478 7.83819C10.6446 7.82567 10.641 7.8132 10.6371 7.80083C10.6332 7.78808 10.6288 7.77557 10.624 7.76318C10.6186 7.74925 10.6128 7.73545 10.6064 7.72185C10.6013 7.71082 10.5957 7.69964 10.5897 7.68861C10.583 7.67603 10.5759 7.66386 10.5684 7.65191C10.5611 7.64048 10.5534 7.62904 10.5453 7.61781C10.5233 7.58724 10.4984 7.55841 10.4705 7.53168L10.5157 7.57986C10.5131 7.57682 10.5105 7.57381 10.5079 7.57081L6.3926 2.87456C6.16532 2.61519 5.78008 2.59767 5.53213 2.83543Z" fill="#E58257"/>
</svg>
