<svg width="26" height="26" viewBox="0 0 26 26" fill="none" xmlns="http://www.w3.org/2000/svg">
<path d="M17.0118 21.3944C17.4147 21.008 17.4419 20.3532 17.0725 19.9317L10.9973 12.9998L17.0725 6.06797C17.4111 5.68163 17.4164 5.09916 17.1046 4.70718L17.0118 4.60529C16.6088 4.21894 15.9828 4.24741 15.6135 4.66888L8.92615 12.3003C8.92188 12.3052 8.91767 12.3101 8.91351 12.315L8.98694 12.2367C8.94163 12.2801 8.90107 12.327 8.86529 12.3765C8.85214 12.3949 8.83962 12.4135 8.82776 12.4324C8.81565 12.4515 8.80415 12.4713 8.79333 12.4913C8.7835 12.5096 8.77439 12.5278 8.76582 12.5462C8.75572 12.5678 8.7462 12.5902 8.73749 12.6129C8.72971 12.633 8.72259 12.6534 8.71611 12.6739C8.70976 12.6942 8.70401 12.7144 8.69887 12.7348C8.69306 12.7575 8.68808 12.7804 8.68385 12.8034C8.67958 12.8271 8.67602 12.8509 8.67325 12.8748C8.67118 12.8922 8.66957 12.9098 8.6684 12.9276C8.66681 12.952 8.66601 12.9762 8.66602 13.0005C8.66603 13.0242 8.66683 13.0481 8.66842 13.0719C8.66957 13.0898 8.67118 13.1075 8.67322 13.1252C8.67602 13.1488 8.67958 13.1726 8.68393 13.1962C8.68808 13.2192 8.69306 13.2422 8.6988 13.2649C8.70401 13.2852 8.70976 13.3055 8.71611 13.3256C8.72259 13.3463 8.72971 13.3667 8.73747 13.3868C8.7462 13.4094 8.75572 13.4318 8.76602 13.454C8.77439 13.4719 8.78351 13.49 8.79318 13.508C8.80415 13.5284 8.81565 13.5482 8.82784 13.5676C8.83962 13.5862 8.85214 13.6048 8.86532 13.623C8.90107 13.6727 8.94163 13.7195 8.98694 13.763L8.91351 13.6847C8.91767 13.6896 8.92188 13.6945 8.92615 13.6994L15.6135 21.3308C15.9828 21.7523 16.6088 21.7807 17.0118 21.3944Z" fill="white"/>
</svg>
