<svg width="12" height="12" viewBox="0 0 12 12" fill="none" xmlns="http://www.w3.org/2000/svg">
<path d="M9.87441 4.14812C9.69609 3.96217 9.39385 3.9496 9.19932 4.12006L6 6.924L2.80068 4.12006C2.62236 3.96381 2.35353 3.96134 2.17262 4.10525L2.12559 4.14812C1.94728 4.33408 1.96042 4.62301 2.15494 4.79347L5.67713 7.87994C5.67938 7.88191 5.68164 7.88385 5.68392 7.88577L5.64778 7.85188C5.66783 7.87279 5.68945 7.89151 5.71231 7.90803C5.7208 7.9141 5.72938 7.91987 5.7381 7.92535C5.74692 7.93094 5.75604 7.93625 5.76531 7.94124C5.77376 7.94577 5.78214 7.94998 5.79061 7.95393C5.80061 7.9586 5.81096 7.96299 5.82143 7.96701C5.8307 7.9706 5.84008 7.97389 5.84955 7.97688C5.85892 7.97981 5.86828 7.98246 5.8777 7.98484C5.88816 7.98752 5.89873 7.98982 5.90936 7.99177C5.92027 7.99374 5.93126 7.99538 5.94229 7.99666C5.9503 7.99762 5.95847 7.99836 5.96664 7.9989C5.9779 7.99963 5.98909 8 6.00029 8C6.01124 7.99999 6.02226 7.99962 6.03326 7.99889C6.04153 7.99836 6.0497 7.99762 6.05785 7.99667C6.06874 7.99538 6.07973 7.99374 6.09065 7.99173C6.10127 7.98982 6.11184 7.98752 6.12234 7.98487C6.13172 7.98246 6.14108 7.97981 6.15035 7.97688C6.15992 7.97389 6.1693 7.9706 6.1786 7.96702C6.18904 7.96299 6.19939 7.9586 6.20959 7.95384C6.21786 7.94998 6.22624 7.94577 6.23452 7.94131C6.24396 7.93625 6.25308 7.93094 6.26204 7.92531C6.27062 7.91987 6.2792 7.9141 6.28762 7.90801C6.31055 7.89151 6.33217 7.87279 6.35222 7.85188L6.31608 7.88577C6.31836 7.88385 6.32062 7.88191 6.32287 7.87994L9.84506 4.79347C10.0396 4.62301 10.0527 4.33408 9.87441 4.14812Z" fill="#E58257"/>
</svg>
