<svg width="20" height="20" viewBox="0 0 20 20" fill="none" xmlns="http://www.w3.org/2000/svg">
<path d="M4.9987 4.16536C4.53846 4.16536 4.16537 3.79227 4.16537 3.33203C4.16537 2.87179 4.53846 2.4987 4.9987 2.4987L14.9987 2.4987C15.4589 2.4987 15.832 2.87179 15.832 3.33203C15.832 3.79227 15.4589 4.16536 14.9987 4.16536L4.9987 4.16536ZM9.9987 15.832C9.53846 15.832 9.16536 15.4589 9.16536 14.9987L9.16536 9.9987L8.32563 9.9987C7.93114 9.9987 7.61134 9.6789 7.61134 9.28441C7.61134 9.15794 7.64492 9.03374 7.70864 8.9245L9.38171 6.05639C9.58048 5.71563 10.0179 5.60054 10.3586 5.79931C10.465 5.86139 10.5536 5.94995 10.6157 6.05639L12.2888 8.9245C12.4875 9.26526 12.3724 9.70262 12.0317 9.9014C11.9224 9.96512 11.7982 9.9987 11.6718 9.9987L10.832 9.9987L10.832 14.9987C10.832 15.4589 10.4589 15.832 9.9987 15.832Z" fill="#E58257"/>
</svg>
