<svg width="20" height="20" viewBox="0 0 20 20" fill="none" xmlns="http://www.w3.org/2000/svg">
<g id="Close">
<path id="Icon" d="M5.35974 5.88281L14.6405 15.1636L5.35974 5.88281ZM13.9776 5.2199C14.3437 4.85378 14.9373 4.85378 15.3034 5.2199C15.6695 5.58602 15.6695 6.17961 15.3034 6.54573L11.3256 10.5228L15.3034 14.5007C15.6695 14.8668 15.6695 15.4604 15.3034 15.8265C14.9373 16.1926 14.3437 16.1926 13.9776 15.8265L9.99974 11.8486L6.02265 15.8265C5.68269 16.1665 5.14658 16.1907 4.7786 15.8994L4.69683 15.8265C4.33071 15.4604 4.33071 14.8668 4.69683 14.5007L8.67391 10.5228L4.69683 6.54573C4.33071 6.17961 4.33071 5.58602 4.69683 5.2199C5.06295 4.85378 5.65654 4.85378 6.02265 5.2199L9.99974 9.19698L13.9776 5.2199Z" fill="#E58257"/>
</g>
</svg>
