<svg width="13" height="13" viewBox="0 0 13 13" fill="none" xmlns="http://www.w3.org/2000/svg">
<path d="M1.85938 1.87891L11.1402 11.1597L1.85938 1.87891ZM10.4772 1.21599C10.8434 0.849877 11.4369 0.849877 11.8031 1.21599C12.1692 1.58211 12.1692 2.1757 11.8031 2.54182L7.82521 6.51891L11.8031 10.4968C12.1692 10.8629 12.1692 11.4565 11.8031 11.8226C11.4369 12.1887 10.8434 12.1887 10.4772 11.8226L6.49938 7.84474L2.52229 11.8226C2.18232 12.1626 1.64622 12.1868 1.27823 11.8954L1.19646 11.8226C0.830346 11.4565 0.830346 10.8629 1.19646 10.4968L5.17354 6.51891L1.19646 2.54182C0.830346 2.1757 0.830346 1.58211 1.19646 1.21599C1.56258 0.849877 2.15617 0.849877 2.52229 1.21599L6.49938 5.19307L10.4772 1.21599Z" fill="#BFBFBF"/>
</svg>
