<svg width="12" height="13" viewBox="0 0 12 13" fill="none" xmlns="http://www.w3.org/2000/svg">
<path d="M3.21484 4.02734L8.78331 9.59581L3.21484 4.02734ZM8.38556 3.6296C8.60523 3.40993 8.96139 3.40993 9.18106 3.6296C9.40073 3.84927 9.40073 4.20542 9.18106 4.42509L6.79434 6.81134L9.18106 9.19806C9.40073 9.41773 9.40073 9.77389 9.18106 9.99356C8.96139 10.2132 8.60523 10.2132 8.38556 9.99356L5.99884 7.60684L3.61259 9.99356C3.40861 10.1975 3.08695 10.2121 2.86616 10.0373L2.8171 9.99356C2.59743 9.77389 2.59743 9.41773 2.8171 9.19806L5.20334 6.81134L2.8171 4.42509C2.59743 4.20542 2.59743 3.84927 2.8171 3.6296C3.03677 3.40993 3.39292 3.40993 3.61259 3.6296L5.99884 6.01584L8.38556 3.6296Z" fill="white"/>
</svg>
