<svg width="10" height="11" viewBox="0 0 10 11" fill="none" xmlns="http://www.w3.org/2000/svg">
<path d="M4.91683 0.835938C7.44813 0.835938 9.50016 2.54289 9.50016 4.64853C9.50016 6.75416 7.44813 8.46112 4.91683 8.46112C4.65465 8.46112 4.39761 8.44281 4.14746 8.40764L1.69367 9.97437C1.64518 10.0053 1.5808 9.9911 1.54984 9.94263C1.53295 9.91619 1.52889 9.88354 1.53878 9.85377C1.72342 9.29767 1.81273 8.76505 1.80671 8.25589C1.80318 7.95741 1.7668 7.65932 1.69757 7.36163C0.855175 6.67053 0.333496 5.71021 0.333496 4.64853C0.333496 2.54289 2.38552 0.835938 4.91683 0.835938Z" fill="#E58257"/>
</svg>
