<svg width="13" height="13" viewBox="0 0 13 13" fill="none" xmlns="http://www.w3.org/2000/svg">
<g id="Chat">
<path id="Icon" d="M6.49996 0.541992C9.79066 0.541992 12.4583 2.76103 12.4583 5.49836C12.4583 8.23569 9.79066 10.4547 6.49996 10.4547C6.15912 10.4547 5.82497 10.4309 5.49978 10.3852L2.30986 12.422C2.24682 12.4622 2.16312 12.4437 2.12287 12.3807C2.10092 12.3463 2.09564 12.3039 2.10849 12.2652C2.34852 11.5422 2.46463 10.8498 2.4568 10.1879C2.45222 9.79991 2.40492 9.41239 2.31492 9.02539C1.21981 8.12696 0.541626 6.87854 0.541626 5.49836C0.541626 2.76103 3.20926 0.541992 6.49996 0.541992ZM6.49996 1.62533C3.768 1.62533 1.62496 3.40799 1.62496 5.49836C1.62496 6.45617 2.07062 7.36992 2.8782 8.08249L3.00204 8.18785L3.28669 8.42137L3.37009 8.77999C3.45979 9.16569 3.51419 9.55323 3.53303 9.94184L3.54006 10.1751L3.53867 10.3516L5.25418 9.25668L5.65061 9.31242C5.92889 9.35155 6.21268 9.3714 6.49996 9.3714C9.23192 9.3714 11.375 7.58873 11.375 5.49836C11.375 3.40799 9.23192 1.62533 6.49996 1.62533Z" fill="#E58257"/>
</g>
</svg>
