<svg width="10" height="11" viewBox="0 0 10 11" fill="none" xmlns="http://www.w3.org/2000/svg">
<path d="M4.99984 0.914062C7.53114 0.914062 9.58317 2.62102 9.58317 4.72665C9.58317 6.83229 7.53114 8.53924 4.99984 8.53924C4.73766 8.53924 4.48062 8.52093 4.23047 8.48576L1.77668 10.0525C1.72819 10.0834 1.6638 10.0692 1.63285 10.0208C1.61596 9.99432 1.6119 9.96167 1.62178 9.93189C1.80643 9.3758 1.89574 8.84317 1.88972 8.33402C1.88619 8.03554 1.84981 7.73745 1.78057 7.43975C0.938182 6.74866 0.416504 5.78833 0.416504 4.72665C0.416504 2.62102 2.46853 0.914062 4.99984 0.914062ZM4.99984 1.7474C2.89833 1.7474 1.24984 3.11868 1.24984 4.72665C1.24984 5.46343 1.59265 6.16632 2.21387 6.71444L2.30913 6.79549L2.52809 6.97513L2.59225 7.25098C2.66125 7.54768 2.7031 7.84578 2.71758 8.14471L2.72299 8.32417L2.72192 8.4599L4.04155 7.61767L4.34649 7.66055C4.56055 7.69064 4.77885 7.70591 4.99984 7.70591C7.10134 7.70591 8.74984 6.33463 8.74984 4.72665C8.74984 3.11868 7.10134 1.7474 4.99984 1.7474Z" fill="#666666"/>
</svg>
