<svg width="10" height="11" viewBox="0 0 10 11" fill="none" xmlns="http://www.w3.org/2000/svg">
<path d="M4.99935 0.917969C7.53065 0.917969 9.58268 2.62492 9.58268 4.73056C9.58268 6.8362 7.53065 8.54315 4.99935 8.54315C4.73717 8.54315 4.48013 8.52484 4.22998 8.48967L1.77619 10.0564C1.7277 10.0873 1.66332 10.0731 1.63236 10.0247C1.61547 9.99822 1.61141 9.96558 1.62129 9.9358C1.80594 9.3797 1.89525 8.84708 1.88923 8.33792C1.8857 8.03944 1.84932 7.74135 1.78009 7.44366C0.937694 6.75256 0.416016 5.79224 0.416016 4.73056C0.416016 2.62492 2.46804 0.917969 4.99935 0.917969ZM4.99935 1.7513C2.89784 1.7513 1.24935 3.12258 1.24935 4.73056C1.24935 5.46734 1.59216 6.17022 2.21338 6.71835L2.30864 6.79939L2.5276 6.97903L2.59176 7.25489C2.66076 7.55159 2.70261 7.84969 2.7171 8.14862L2.7225 8.32807L2.72143 8.4638L4.04106 7.62158L4.346 7.66445C4.56007 7.69455 4.77836 7.70982 4.99935 7.70982C7.10085 7.70982 8.74935 6.33854 8.74935 4.73056C8.74935 3.12258 7.10085 1.7513 4.99935 1.7513Z" fill="#666666"/>
</svg>
