<svg width="16" height="17" viewBox="0 0 16 17" fill="none" xmlns="http://www.w3.org/2000/svg">
<path d="M3.54147 14.4269C2.81792 14.5638 2.1204 14.0882 1.98352 13.3646C1.95253 13.2009 1.95253 13.0327 1.98352 12.8689L2.42349 10.5433C2.47331 10.28 2.6013 10.0379 2.79078 9.84839L10.6023 2.03685C11.0081 1.63104 11.6281 1.53043 12.1414 1.78709L12.6544 2.04361C13.3954 2.41411 13.9963 3.01496 14.3668 3.75596L14.6233 4.269C14.88 4.78231 14.7794 5.40228 14.3736 5.80809L6.56202 13.6196C6.37253 13.8091 6.13036 13.9371 5.86706 13.9869L3.54147 14.4269ZM10.2354 4.29031L12.121 6.17593L13.4307 4.86528L13.1742 4.35225C12.9327 3.86928 12.5411 3.47766 12.0582 3.23618L11.5451 2.97966L10.2354 4.29031ZM3.7027 10.9569L5.45444 12.7086L5.61921 12.6768L11.1782 7.11873L9.29261 5.23312L3.73359 10.7912L3.7027 10.9569Z" fill="white"/>
</svg>
