<svg width="10" height="11" viewBox="0 0 10 11" fill="none" xmlns="http://www.w3.org/2000/svg">
<path d="M4.99984 7.58333C5.46007 7.58333 5.83317 7.95643 5.83317 8.41667C5.83317 8.8769 5.46007 9.25 4.99984 9.25C4.5396 9.25 4.1665 8.8769 4.1665 8.41667C4.1665 7.95643 4.5396 7.58333 4.99984 7.58333ZM4.99984 4.66667C5.46007 4.66667 5.83317 5.03976 5.83317 5.5C5.83317 5.96024 5.46007 6.33333 4.99984 6.33333C4.5396 6.33333 4.1665 5.96024 4.1665 5.5C4.1665 5.03976 4.5396 4.66667 4.99984 4.66667ZM4.99984 1.75C5.46007 1.75 5.83317 2.1231 5.83317 2.58333C5.83317 3.04357 5.46007 3.41667 4.99984 3.41667C4.5396 3.41667 4.1665 3.04357 4.1665 2.58333C4.1665 2.1231 4.5396 1.75 4.99984 1.75Z" fill="#252525"/>
</svg>
