<svg width="24" height="24" viewBox="0 0 24 24" fill="none" xmlns="http://www.w3.org/2000/svg">
<path d="M14.6667 3.99984C15.219 3.99984 15.6667 4.44755 15.6667 4.99984C15.6667 5.51268 15.2806 5.93535 14.7833 5.99311L14.6667 5.99984H5V19.9998H19V10.3332C19 9.82034 19.386 9.39767 19.8834 9.3399L20 9.33317C20.5128 9.33317 20.9355 9.71921 20.9933 10.2166L21 10.3332V20.111C21 21.1045 20.2329 21.9188 19.2587 21.9942L19.1111 21.9998H4.88889C3.89536 21.9998 3.08099 21.2328 3.00568 20.2586L3 20.111V5.88873C3 4.8952 3.76706 4.08083 4.74127 4.00552L4.88889 3.99984H14.6667ZM22.3057 3.41363C22.3434 3.55662 22.3434 3.70691 22.3057 3.8499L21.2917 7.70323C21.1712 8.16103 20.7024 8.43449 20.2446 8.31401C20.0979 8.27539 19.964 8.19849 19.8567 8.09118L19.1441 7.37864L13.4873 13.0355C13.0968 13.426 12.4636 13.426 12.0731 13.0355C11.6825 12.645 11.6825 12.0118 12.0731 11.6213L17.7299 5.96443L17.0174 5.25189C16.6827 4.91716 16.6827 4.37444 17.0174 4.03971C17.1247 3.9324 17.2586 3.8555 17.4053 3.81688L21.2587 2.80285C21.7165 2.68237 22.1853 2.95583 22.3057 3.41363Z" fill="#666666"/>
</svg>
