<svg width="12" height="12" viewBox="0 0 12 12" fill="none" xmlns="http://www.w3.org/2000/svg">
<path d="M7.46494 8.59067C8.9198 7.08996 9.80939 7.06039 8.70502 4.50598C7.67613 1.28962 9.22566 1.16714 6.767 1.20482H5.23952C2.77011 1.16669 4.32465 1.29067 3.29486 4.50598C2.18942 7.05724 3.08116 7.09191 4.53441 8.59082C4.53441 8.83353 4.34115 9.22439 4.09966 9.58839C3.14678 10.879 4.9222 10.8183 5.99967 10.7883C7.08074 10.8216 8.85168 10.8729 7.89969 9.58854C7.6582 9.22454 7.46494 8.83353 7.46476 8.59082L7.46494 8.59067ZM5.99985 8.16363C5.79906 8.16363 5.60221 8.13271 5.42149 8.08738C4.97401 7.9754 4.56901 7.75641 4.24129 7.46131C4.10934 7.34243 3.96753 7.20524 3.82105 7.04208C3.55034 6.74038 3.54048 6.32745 3.62976 5.88946H8.36959C8.45887 6.3273 8.44901 6.74038 8.1783 7.04208C8.03182 7.20524 7.89019 7.34243 7.75824 7.46131C7.43052 7.75641 7.02552 7.97525 6.57803 8.08738C6.3975 8.13256 6.20047 8.16363 5.99967 8.16363H5.99985Z" fill="#E58257"/>
</svg>
