<svg width="30" height="30" viewBox="0 0 30 30" fill="none" xmlns="http://www.w3.org/2000/svg">
<path d="M7.50001 26.2499C6.80966 26.2499 6.25001 25.6903 6.25001 24.9999L6.25 13.1986L4.58047 14.6842C4.10418 15.1075 3.39433 15.1005 2.9272 14.6911L2.81575 14.5804C2.39238 14.1041 2.39942 13.3942 2.80884 12.9271L2.91956 12.8157L13.3391 3.55384C14.2306 2.7614 15.5474 2.71478 16.489 3.414L16.6609 3.55384L27.0805 12.8157C27.5964 13.2743 27.6429 14.0644 27.1843 14.5804C26.7609 15.0567 26.0551 15.1329 25.5432 14.7811L25.4196 14.6842L23.75 13.1999L23.75 24.9999C23.75 25.641 23.2675 26.1693 22.6458 26.2415L22.5 26.2499H7.50001ZM15 5.42117L8.72531 11.0014C8.74151 11.0817 8.75001 11.1648 8.75001 11.2499L8.75 23.7499H21.25L21.25 11.2499C21.25 11.1644 21.2586 11.0809 21.275 11.0002L15 5.42117Z" fill="#E58257"/>
</svg>
