<svg width="30" height="30" viewBox="0 0 30 30" fill="none" xmlns="http://www.w3.org/2000/svg">
<g id="Like outline">
<path id="Icon" fill-rule="evenodd" clip-rule="evenodd" d="M15.9427 26.7368C15.7733 26.8871 15.602 27.0172 15.429 27.1509C15.179 27.3439 14.821 27.3439 14.5711 27.1508C14.3982 27.0171 14.2272 26.8871 14.0579 26.7368C6.33371 19.8794 2.40872 16.0335 2.50161 10.6944C2.50161 6.85913 5.92134 3.75 10.1398 3.75C11.9862 3.75 13.6796 4.34565 15.0002 5.33713C16.3208 4.34565 18.0142 3.75 19.8606 3.75C24.079 3.75 27.4988 6.85913 27.4988 10.6944C27.5917 16.0335 23.6667 19.8795 15.9427 26.7368ZM5.00161 10.7162L5.00123 10.7379C4.96632 12.7444 5.67034 14.5631 7.5324 16.8775C9.1672 18.9094 11.5429 21.2814 14.7919 24.1889C14.9103 24.2948 15.0903 24.2948 15.2086 24.1889C18.4576 21.2814 20.8332 18.9095 22.468 16.8775C24.3301 14.5631 25.0341 12.7443 24.9992 10.7379L24.9988 10.7162V10.6944C24.9988 8.45853 22.9277 6.25 19.8606 6.25C18.5538 6.25 17.3875 6.67098 16.5012 7.33638L15.1878 8.32244C15.0767 8.4059 14.9237 8.4059 14.8126 8.32244L13.4992 7.33638C12.6129 6.67098 11.4466 6.25 10.1398 6.25C7.07272 6.25 5.00161 8.45853 5.00161 10.6944V10.7162Z" fill="#E58257"/>
</g>
</svg>
