<svg width="16" height="26" viewBox="0 0 16 26" fill="none" xmlns="http://www.w3.org/2000/svg">
<path d="M14.6773 19.7581C14.8746 17.18 15.0961 14.6019 15.2911 12.0238C15.4018 10.447 14.9324 9.96318 13.8901 9.46729C13.0355 9.07733 12.1978 8.65847 11.3697 8.21555C10.5104 7.76781 9.99282 7.07212 9.72562 6.16701V5.79149C10.0386 5.7289 10.1348 5.61576 10.1348 5.30764C10.1348 3.62018 10.1397 1.93273 10.1348 0.245279C10.1348 0.112882 10.0265 0.00696499 9.89653 0.00455779C8.40166 -0.00025663 6.90437 -0.00266384 5.4095 0.00455779C5.2771 0.00455779 5.17118 0.112882 5.16878 0.245279C5.16637 1.93273 5.16878 3.62018 5.16878 5.30764C5.16878 5.61817 5.26507 5.7289 5.578 5.79149V6.16701C5.35895 6.75918 5.11582 7.41395 4.58383 7.79428C3.84722 8.27813 3.08173 8.70421 2.28013 9.0701C1.33409 9.501 0.147341 9.89818 0.0342021 11.0994C-0.0283853 11.5231 0.0077228 11.9395 0.0414237 12.3608C0.135305 13.5692 0.224372 14.78 0.32066 15.9884C0.450649 17.6253 0.585453 19.2622 0.713035 20.9015C0.821359 22.2736 0.920055 23.6458 1.03319 25.0179C1.07893 25.5739 1.55074 25.9976 2.11162 26C5.80428 26 4.7427 26 8.43536 26L14.6748 19.7605L14.6773 19.7581Z" fill="white"/>
<path d="M8.43787 25.9967C8.43787 24.4489 8.42824 22.901 8.43787 21.3556C8.44269 20.6864 9.03245 19.9907 9.68481 19.8246C9.8822 19.7741 10.082 19.75 10.2866 19.75C11.7502 19.7548 13.2138 19.7548 14.6774 19.7548C14.5498 20.4505 14.2465 21.0716 13.7578 21.5723C12.6023 22.759 11.43 23.9313 10.2433 25.0844C9.74739 25.5682 9.13115 25.8667 8.44028 25.9919L8.43787 25.9967Z" fill="#E6E6DD"/>
</svg>
