<svg width="48" height="30" viewBox="0 0 48 30" fill="none" xmlns="http://www.w3.org/2000/svg">
<g id="logo-text-subcoral">
<path id="Vector" d="M8.75085 10.7598C8.75085 11.4733 8.5952 12.0961 8.28391 12.6323C7.97261 13.1686 7.51432 13.5881 6.91767 13.8865C6.32102 14.1849 5.58169 14.3363 4.70834 14.3363H0L0.112412 8.01794L0 1.57422H4.44028C5.22716 1.57422 5.89731 1.69963 6.45505 1.95046C7.01279 2.20129 7.44082 2.56456 7.73914 3.04892C8.03747 3.52896 8.18879 4.10846 8.18879 4.78311C8.18879 5.24584 8.09367 5.69128 7.89911 6.12375C7.70455 6.55621 7.38894 6.93246 6.95226 7.2568C6.51558 7.58115 5.9319 7.82766 5.20987 7.98767C4.92019 8.02659 4.59593 8.06984 4.23707 8.11741C3.8739 8.1693 3.45019 8.20823 2.96163 8.2385C2.47307 8.26877 1.88507 8.28607 1.20195 8.28607V7.23518C1.4138 7.23518 1.6343 7.23518 1.85912 7.24383C2.08395 7.25248 2.32174 7.2568 2.57251 7.26113C2.82327 7.26545 3.08269 7.26978 3.35075 7.26978H4.18519C4.76022 7.26978 5.24446 7.19626 5.6379 7.0449C6.03134 6.89353 6.33399 6.66433 6.54585 6.35295C6.7577 6.04158 6.86579 5.63506 6.86579 5.1334C6.86579 4.53228 6.66258 4.05224 6.25617 3.68897C5.84975 3.3257 5.11475 3.14407 4.05548 3.14407C3.86957 3.14407 3.62745 3.14407 3.33345 3.15271C3.03945 3.15704 2.73248 3.16136 2.40389 3.16136C2.0753 3.16136 1.78562 3.16136 1.52189 3.17001C1.25815 3.17866 1.07224 3.17866 0.959827 3.17866L1.53918 2.56024V13.1124L1.12844 12.6626C1.55215 12.6886 2.04504 12.7102 2.6071 12.7275C3.16916 12.7448 3.71825 12.7578 4.25437 12.7578C5.19258 12.7578 5.91893 12.5718 6.43776 12.1956C6.95658 11.8193 7.21599 11.2355 7.21599 10.4311C7.21599 9.88186 7.07332 9.46237 6.79229 9.17695C6.51126 8.89152 6.14808 8.68826 5.70708 8.57582C5.26175 8.46338 4.79049 8.40716 4.29328 8.40716H3.70095C3.50639 8.40716 3.32048 8.40716 3.13889 8.41581C2.9573 8.42013 2.77139 8.42446 2.57683 8.42446C2.38227 8.42446 2.18771 8.42446 1.98451 8.43311C1.78562 8.43743 1.57377 8.44176 1.34895 8.44176V7.65467C1.62565 7.6417 1.88939 7.63737 2.14448 7.63737C2.39957 7.63737 2.71086 7.63737 3.08269 7.62872C3.45019 7.6244 3.8739 7.62007 4.34949 7.62007C4.76022 7.62007 5.22284 7.66765 5.7287 7.76279C6.23455 7.85793 6.71446 8.01794 7.17276 8.25147C7.62673 8.485 8.0072 8.8007 8.30553 9.20722C8.60385 9.61374 8.75518 10.1284 8.75518 10.7554L8.75085 10.7598Z" fill="#E6E6DD"/>
<path id="Vector_2" d="M14.8557 3.8457C15.8933 3.8457 16.7797 4.04031 17.519 4.42521C18.2583 4.81442 18.8204 5.36365 19.2138 6.08587C19.6073 6.80376 19.8062 7.68166 19.8062 8.71958C19.8062 9.69263 19.6635 10.5446 19.3824 11.2711C19.1014 11.9977 18.7166 12.5988 18.2281 13.0788C17.7395 13.5589 17.1861 13.9178 16.5592 14.1557C15.9323 14.3935 15.2794 14.5103 14.592 14.5103C13.5673 14.5103 12.6853 14.3157 11.9416 13.9308C11.198 13.5416 10.6273 12.9837 10.2252 12.2528C9.82309 11.522 9.62421 10.644 9.62421 9.61911C9.62421 8.59416 9.76256 7.79411 10.0349 7.06756C10.3116 6.34535 10.6921 5.74422 11.1764 5.26851C11.6649 4.7928 12.227 4.43818 12.8625 4.20032C13.4981 3.96247 14.1639 3.8457 14.8514 3.8457H14.8557ZM14.6136 5.38095C13.7878 5.38095 13.109 5.52799 12.5685 5.82207C12.0324 6.11614 11.639 6.54428 11.3882 7.10649C11.1374 7.66869 11.0121 8.36063 11.0121 9.18664C11.0121 9.94778 11.1418 10.6138 11.4055 11.1846C11.6692 11.7555 12.0757 12.1923 12.6247 12.508C13.1738 12.8193 13.9045 12.975 14.8168 12.975C15.6426 12.975 16.3214 12.828 16.8618 12.5339C17.3979 12.2398 17.7914 11.8031 18.0421 11.2236C18.2929 10.644 18.4183 9.93913 18.4183 9.11312C18.4183 8.35198 18.2886 7.69031 18.0335 7.12811C17.7784 6.56591 17.372 6.13344 16.8143 5.83504C16.2565 5.53664 15.5258 5.38528 14.6136 5.38528V5.38095Z" fill="#E6E6DD"/>
<path id="Vector_3" d="M22.3355 3.99171H26.4947V5.52696H20.0094V4.68365L21.6783 4.13875L23.1007 2.05859H23.1742L23.0618 5.20694V10.963C23.0618 11.5123 23.131 11.9361 23.2694 12.2302C23.4077 12.5242 23.6196 12.7188 23.9049 12.8226C24.1903 12.9221 24.5491 12.974 24.9728 12.974C25.2971 12.974 25.5911 12.9567 25.8548 12.9178C26.1186 12.8789 26.3564 12.8356 26.5682 12.788V14.2887C26.3823 14.3492 26.1575 14.4055 25.9024 14.4487C25.6473 14.492 25.323 14.5136 24.9382 14.5136C24.2249 14.5136 23.6239 14.4055 23.131 14.1849C22.6381 13.9687 22.2706 13.6054 22.0242 13.0994C21.7821 12.5934 21.6653 11.9015 21.6783 11.0279L21.7734 4.78745L22.3355 4.00036V3.99171Z" fill="#E6E6DD"/>
<path id="Vector_4" d="M30.1005 3.99171H34.2597V5.52696H27.7744V4.68365L29.4433 4.13875L30.8657 2.05859H30.9392L30.8268 5.20694V10.963C30.8268 11.5123 30.896 11.9361 31.0344 12.2302C31.1727 12.5242 31.3846 12.7188 31.6699 12.8226C31.9553 12.9221 32.3141 12.974 32.7378 12.974C33.0621 12.974 33.3561 12.9567 33.6198 12.9178C33.8836 12.8789 34.1214 12.8356 34.3332 12.788V14.2887C34.1473 14.3492 33.9225 14.4055 33.6674 14.4487C33.4123 14.492 33.088 14.5136 32.7033 14.5136C31.9899 14.5136 31.3889 14.4055 30.896 14.1849C30.4031 13.9687 30.0356 13.6054 29.7892 13.0994C29.5471 12.5934 29.4303 11.9015 29.4433 11.0279L29.5384 4.78745L30.1005 4.00036V3.99171Z" fill="#E6E6DD"/>
<path id="Vector_5" d="M37.39 6.37453L37.5586 14.3405H35.9286L36.041 6.57779L35.7773 0H37.39V6.37453Z" fill="#E6E6DD"/>
<path id="Vector_6" d="M47.6973 12.0521V13.6089C47.1958 13.8338 46.6208 14.0371 45.9723 14.2187C45.3237 14.4004 44.6233 14.4955 43.8753 14.5085C42.8377 14.5085 41.947 14.3095 41.2034 13.9073C40.4597 13.5095 39.8933 12.9213 39.5086 12.1559C39.1194 11.3861 38.9292 10.4347 38.9292 9.29727C38.9292 8.34585 39.0762 7.52416 39.3702 6.83222C39.6642 6.14028 40.049 5.57375 40.5332 5.13696C41.0131 4.70017 41.5579 4.3715 42.1632 4.15094C42.7685 3.93471 43.3954 3.82227 44.0483 3.82227C44.9735 3.82227 45.7258 3.97795 46.3052 4.28933C46.8845 4.6007 47.3125 5.05479 47.5893 5.64727C47.866 6.23974 48 6.97061 48 7.83121C48 7.98258 48 8.13826 47.9913 8.29828C47.9827 8.46261 47.9697 8.63127 47.9438 8.80426L39.6037 8.74804L39.6426 7.80959L47.4595 7.73607L46.7678 8.25935C46.8153 7.55876 46.7159 6.99656 46.4695 6.57274C46.2187 6.14893 45.8512 5.83755 45.3626 5.64727C44.8741 5.45266 44.299 5.35752 43.6375 5.35752C42.8766 5.35752 42.2454 5.48725 41.7525 5.74241C41.2596 5.99756 40.8921 6.38246 40.6543 6.89709C40.4165 7.41172 40.2998 8.04745 40.2998 8.80858C40.2998 9.64757 40.4295 10.3784 40.6846 11.0012C40.9396 11.6283 41.3331 12.1126 41.8649 12.4543C42.3967 12.7959 43.0841 12.9689 43.9359 12.9689C44.6103 12.9689 45.2762 12.8824 45.9333 12.7051C46.5905 12.5278 47.1785 12.3115 47.706 12.0477L47.6973 12.0521Z" fill="#E6E6DD"/>
<path id="Vector_7" d="M14.4493 29.9781L4.92881 18.8249L5.95781 18.1113L6.10914 29.8268H4.57428L4.6694 17.0215H5.23146L14.6568 28.0277L13.8699 28.2699L13.6278 17.0604H15.1453L15.0329 29.9781H14.4536H14.4493Z" fill="#E6E6DD"/>
<path id="Vector_8" d="M21.821 19.332C22.8586 19.332 23.7449 19.5266 24.4843 19.9115C25.2236 20.3008 25.7857 20.85 26.1791 21.5722C26.5725 22.2901 26.7714 23.168 26.7714 24.2059C26.7714 25.179 26.6287 26.0309 26.3477 26.7574C26.0667 27.484 25.6819 28.0851 25.1933 28.5652C24.7048 29.0452 24.1514 29.4041 23.5244 29.642C22.8975 29.8798 22.2447 29.9966 21.5572 29.9966C20.5325 29.9966 19.6505 29.802 18.9069 29.4171C18.1632 29.0279 17.5925 28.47 17.1904 27.7391C16.7884 27.0083 16.5895 26.1304 16.5895 25.1054C16.5895 24.0805 16.7278 23.2804 17.0002 22.5582C17.2769 21.8317 17.6574 21.2349 18.1416 20.7592C18.6302 20.2835 19.1923 19.9288 19.8278 19.691C20.4634 19.4531 21.1292 19.3364 21.8166 19.3364L21.821 19.332ZM21.5745 20.8673C20.7487 20.8673 20.0699 21.0143 19.5295 21.3084C18.9934 21.6025 18.5999 22.0306 18.3492 22.5928C18.0984 23.155 17.973 23.847 17.973 24.673C17.973 25.4341 18.1027 26.1001 18.3665 26.671C18.6302 27.2418 19.0366 27.6786 19.5857 27.9943C20.1348 28.3057 20.8655 28.4614 21.7777 28.4614C22.6035 28.4614 23.2823 28.3143 23.8228 28.0202C24.3589 27.7262 24.7523 27.2894 25.0031 26.7099C25.2539 26.1304 25.3792 25.4255 25.3792 24.5995C25.3792 23.8383 25.2495 23.1766 24.9944 22.6144C24.7394 22.0522 24.3329 21.6198 23.7752 21.3214C23.2175 21.023 22.4868 20.8716 21.5745 20.8716V20.8673Z" fill="#E6E6DD"/>
<path id="Vector_9" d="M29.2963 19.478H33.4556V21.0133H26.9703V20.17L28.6392 19.6251L30.0616 17.5449H30.1351L30.0227 20.6933V26.4494C30.0227 26.9986 30.0919 27.4224 30.2302 27.7165C30.3686 28.0106 30.5804 28.2052 30.8658 28.309C31.1511 28.4084 31.51 28.4603 31.9337 28.4603C32.258 28.4603 32.552 28.443 32.8157 28.4041C33.0794 28.3652 33.3172 28.3219 33.5291 28.2744V29.775C33.3432 29.8356 33.1184 29.8918 32.8633 29.935C32.6082 29.9783 32.2839 29.9999 31.8991 29.9999C31.1857 29.9999 30.5848 29.8918 30.0919 29.6712C29.599 29.455 29.2315 29.0917 28.985 28.5857C28.7429 28.0798 28.6262 27.3878 28.6392 26.5142L28.7343 20.2694L29.2963 19.4824V19.478Z" fill="#E6E6DD"/>
<path id="Vector_10" d="M43.1446 27.5384V29.0953C42.6431 29.3201 42.068 29.5234 41.4195 29.705C40.771 29.8867 40.0706 29.9818 39.3226 29.9948C38.2849 29.9948 37.3943 29.7959 36.6506 29.3937C35.907 28.9958 35.3406 28.4076 34.9558 27.6422C34.5667 26.8724 34.3765 25.921 34.3765 24.7836C34.3765 23.8322 34.5235 23.0105 34.8175 22.3185C35.1115 21.6266 35.4963 21.0601 35.9805 20.6233C36.4604 20.1865 37.0052 19.8578 37.6105 19.6373C38.2158 19.4167 38.8427 19.3086 39.4955 19.3086C40.4208 19.3086 41.1731 19.4643 41.7524 19.7757C42.3318 20.087 42.7598 20.5411 43.0365 21.1336C43.3132 21.7261 43.4473 22.4569 43.4473 23.3175C43.4473 23.4689 43.4473 23.6246 43.4386 23.7846C43.43 23.9489 43.417 24.1176 43.3911 24.2906L35.0509 24.2344L35.0899 23.2959L42.9068 23.2224L42.215 23.7457C42.2626 23.0451 42.1632 22.4829 41.9167 22.0591C41.666 21.6353 41.2985 21.3239 40.8099 21.1293C40.3213 20.9347 39.7463 20.8395 39.0848 20.8395C38.3239 20.8395 37.6926 20.9693 37.1997 21.2244C36.7069 21.4796 36.3394 21.8645 36.1016 22.3791C35.8638 22.8937 35.747 23.5294 35.747 24.2906C35.747 25.1296 35.8767 25.8604 36.1318 26.4832C36.3869 27.1059 36.7804 27.5903 37.3122 27.9363C37.8439 28.2779 38.5314 28.4509 39.3831 28.4509C40.0576 28.4509 40.7234 28.3644 41.3806 28.1871C42.0378 28.0141 42.6258 27.7935 43.1533 27.5297L43.1446 27.5384Z" fill="#E6E6DD"/>
</g>
</svg>
