<svg width="48" height="30" viewBox="0 0 48 30" fill="none" xmlns="http://www.w3.org/2000/svg">
<path d="M8.75085 10.7598C8.75085 11.4733 8.5952 12.0961 8.28391 12.6323C7.97261 13.1686 7.51432 13.5881 6.91767 13.8865C6.32102 14.1849 5.58169 14.3363 4.70834 14.3363H0L0.112412 8.01794L0 1.57422H4.44028C5.22716 1.57422 5.89731 1.69963 6.45505 1.95046C7.01279 2.20129 7.44082 2.56456 7.73914 3.04892C8.03747 3.52896 8.18879 4.10846 8.18879 4.78311C8.18879 5.24584 8.09367 5.69128 7.89911 6.12375C7.70455 6.55621 7.38894 6.93246 6.95226 7.2568C6.51558 7.58115 5.9319 7.82766 5.20987 7.98767C4.92019 8.02659 4.59593 8.06984 4.23707 8.11741C3.8739 8.1693 3.45019 8.20823 2.96163 8.2385C2.47307 8.26877 1.88507 8.28607 1.20195 8.28607V7.23518C1.4138 7.23518 1.6343 7.23518 1.85912 7.24383C2.08395 7.25248 2.32174 7.2568 2.57251 7.26113C2.82327 7.26545 3.08269 7.26978 3.35075 7.26978H4.18519C4.76022 7.26978 5.24446 7.19626 5.6379 7.0449C6.03134 6.89353 6.33399 6.66433 6.54585 6.35295C6.7577 6.04158 6.86579 5.63506 6.86579 5.1334C6.86579 4.53228 6.66258 4.05224 6.25617 3.68897C5.84975 3.3257 5.11475 3.14407 4.05548 3.14407C3.86957 3.14407 3.62745 3.14407 3.33345 3.15271C3.03945 3.15704 2.73248 3.16136 2.40389 3.16136C2.0753 3.16136 1.78562 3.16136 1.52189 3.17001C1.25815 3.17866 1.07224 3.17866 0.959827 3.17866L1.53918 2.56024V13.1124L1.12844 12.6626C1.55215 12.6886 2.04504 12.7102 2.6071 12.7275C3.16916 12.7448 3.71825 12.7578 4.25437 12.7578C5.19258 12.7578 5.91893 12.5718 6.43776 12.1956C6.95658 11.8193 7.21599 11.2355 7.21599 10.4311C7.21599 9.88186 7.07332 9.46237 6.79229 9.17695C6.51126 8.89152 6.14808 8.68826 5.70708 8.57582C5.26175 8.46338 4.79049 8.40716 4.29328 8.40716H3.70095C3.50639 8.40716 3.32048 8.40716 3.13889 8.41581C2.9573 8.42013 2.77139 8.42446 2.57683 8.42446C2.38227 8.42446 2.18771 8.42446 1.98451 8.43311C1.78562 8.43743 1.57377 8.44176 1.34895 8.44176V7.65467C1.62565 7.6417 1.88939 7.63737 2.14448 7.63737C2.39957 7.63737 2.71086 7.63737 3.08269 7.62872C3.45019 7.6244 3.8739 7.62007 4.34949 7.62007C4.76022 7.62007 5.22284 7.66765 5.7287 7.76279C6.23455 7.85793 6.71446 8.01794 7.17276 8.25147C7.62673 8.485 8.0072 8.8007 8.30553 9.20722C8.60385 9.61374 8.75518 10.1284 8.75518 10.7554L8.75085 10.7598Z" fill="#E58257"/>
<path d="M14.8558 3.84473C15.8934 3.84473 16.7797 4.03934 17.5191 4.42423C18.2584 4.81345 18.8204 5.36268 19.2139 6.08489C19.6073 6.80278 19.8062 7.68069 19.8062 8.7186C19.8062 9.69165 19.6635 10.5436 19.3825 11.2701C19.1015 11.9967 18.7167 12.5978 18.2281 13.0778C17.7396 13.5579 17.1861 13.9168 16.5592 14.1547C15.9323 14.3925 15.2795 14.5093 14.592 14.5093C13.5673 14.5093 12.6853 14.3147 11.9417 13.9298C11.198 13.5406 10.6273 12.9827 10.2252 12.2518C9.82315 11.521 9.62427 10.6431 9.62427 9.61813C9.62427 8.59319 9.76262 7.79313 10.035 7.06659C10.3117 6.34437 10.6922 5.74325 11.1764 5.26754C11.665 4.79182 12.227 4.4372 12.8626 4.19935C13.4982 3.96149 14.164 3.84473 14.8514 3.84473H14.8558ZM14.6136 5.37998C13.7878 5.37998 13.109 5.52701 12.5686 5.82109C12.0325 6.11517 11.639 6.54331 11.3883 7.10551C11.1375 7.66771 11.0121 8.35966 11.0121 9.18566C11.0121 9.9468 11.1418 10.6128 11.4056 11.1837C11.6693 11.7545 12.0757 12.1913 12.6248 12.507C13.1739 12.8184 13.9046 12.9741 14.8168 12.9741C15.6426 12.9741 16.3214 12.827 16.8619 12.5329C17.398 12.2389 17.7914 11.8021 18.0422 11.2226C18.293 10.6431 18.4184 9.93815 18.4184 9.11215C18.4184 8.35101 18.2886 7.68934 18.0336 7.12713C17.7785 6.56493 17.3721 6.13246 16.8143 5.83406C16.2566 5.53566 15.5259 5.3843 14.6136 5.3843V5.37998Z" fill="#E58257"/>
<path d="M22.3353 3.99171H26.4946V5.52696H20.0093V4.68365L21.6782 4.13875L23.1006 2.05859H23.1741L23.0617 5.20694V10.963C23.0617 11.5123 23.1309 11.9361 23.2692 12.2302C23.4076 12.5242 23.6194 12.7188 23.9048 12.8226C24.1901 12.9221 24.549 12.974 24.9727 12.974C25.297 12.974 25.591 12.9567 25.8547 12.9178C26.1184 12.8789 26.3562 12.8356 26.5681 12.788V14.2887C26.3822 14.3492 26.1574 14.4055 25.9023 14.4487C25.6472 14.492 25.3229 14.5136 24.9381 14.5136C24.2247 14.5136 23.6238 14.4055 23.1309 14.1849C22.638 13.9687 22.2705 13.6054 22.024 13.0994C21.7819 12.5934 21.6652 11.9015 21.6782 11.0279L21.7733 4.78745L22.3353 4.00036V3.99171Z" fill="#E58257"/>
<path d="M30.1005 3.99171H34.2597V5.52696H27.7744V4.68365L29.4433 4.13875L30.8657 2.05859H30.9392L30.8268 5.20694V10.963C30.8268 11.5123 30.896 11.9361 31.0344 12.2302C31.1727 12.5242 31.3846 12.7188 31.6699 12.8226C31.9553 12.9221 32.3141 12.974 32.7378 12.974C33.0621 12.974 33.3561 12.9567 33.6198 12.9178C33.8836 12.8789 34.1214 12.8356 34.3332 12.788V14.2887C34.1473 14.3492 33.9225 14.4055 33.6674 14.4487C33.4123 14.492 33.088 14.5136 32.7033 14.5136C31.9899 14.5136 31.3889 14.4055 30.896 14.1849C30.4031 13.9687 30.0356 13.6054 29.7892 13.0994C29.5471 12.5934 29.4303 11.9015 29.4433 11.0279L29.5384 4.78745L30.1005 4.00036V3.99171Z" fill="#E58257"/>
<path d="M37.39 6.37453L37.5586 14.3405H35.9287L36.0411 6.57779L35.7773 0H37.39V6.37453Z" fill="#E58257"/>
<path d="M47.6973 12.053V13.6099C47.1958 13.8348 46.6208 14.0381 45.9723 14.2197C45.3237 14.4013 44.6233 14.4965 43.8753 14.5094C42.8377 14.5094 41.947 14.3105 41.2034 13.9083C40.4597 13.5105 39.8933 12.9223 39.5086 12.1568C39.1194 11.387 38.9292 10.4356 38.9292 9.29825C38.9292 8.34682 39.0762 7.52514 39.3702 6.8332C39.6642 6.14125 40.049 5.57472 40.5332 5.13793C41.0131 4.70115 41.5579 4.37247 42.1632 4.15192C42.7685 3.93568 43.3954 3.82324 44.0483 3.82324C44.9735 3.82324 45.7258 3.97893 46.3052 4.2903C46.8845 4.60168 47.3125 5.05577 47.5893 5.64824C47.866 6.24072 48 6.97159 48 7.83219C48 7.98355 48 8.13924 47.9913 8.29925C47.9827 8.46359 47.9697 8.63225 47.9438 8.80524L39.6037 8.74901L39.6426 7.81057L47.4595 7.73705L46.7678 8.26033C46.8153 7.55974 46.7159 6.99753 46.4695 6.57372C46.2187 6.1499 45.8512 5.83853 45.3626 5.64824C44.8741 5.45363 44.299 5.35849 43.6375 5.35849C42.8766 5.35849 42.2454 5.48823 41.7525 5.74339C41.2596 5.99854 40.8921 6.38343 40.6543 6.89807C40.4165 7.4127 40.2998 8.04842 40.2998 8.80956C40.2998 9.64854 40.4295 10.3794 40.6846 11.0022C40.9396 11.6292 41.3331 12.1136 41.8649 12.4552C42.3967 12.7969 43.0841 12.9699 43.9359 12.9699C44.6103 12.9699 45.2762 12.8834 45.9333 12.7061C46.5905 12.5288 47.1785 12.3125 47.706 12.0487L47.6973 12.053Z" fill="#E58257"/>
<path d="M14.4492 29.9781L4.92875 18.8249L5.95775 18.1113L6.10908 29.8268H4.57422L4.66934 17.0215H5.2314L14.6567 28.0277L13.8698 28.2699L13.6277 17.0604H15.1453L15.0329 29.9781H14.4535H14.4492Z" fill="#E58257"/>
<path d="M21.821 19.3311C22.8586 19.3311 23.7449 19.5257 24.4843 19.9106C25.2236 20.2998 25.7857 20.849 26.1791 21.5712C26.5725 22.2891 26.7714 23.167 26.7714 24.2049C26.7714 25.178 26.6287 26.0299 26.3477 26.7565C26.0667 27.483 25.6819 28.0841 25.1933 28.5642C24.7048 29.0442 24.1514 29.4032 23.5244 29.641C22.8975 29.8789 22.2447 29.9956 21.5572 29.9956C20.5325 29.9956 19.6505 29.801 18.9069 29.4161C18.1632 29.0269 17.5925 28.469 17.1904 27.7382C16.7884 27.0073 16.5895 26.1294 16.5895 25.1045C16.5895 24.0795 16.7278 23.2795 17.0002 22.5572C17.2769 21.8307 17.6574 21.2339 18.1416 20.7582C18.6302 20.2825 19.1923 19.9279 19.8278 19.69C20.4634 19.4521 21.1292 19.3354 21.8166 19.3354L21.821 19.3311ZM21.5745 20.8663C20.7487 20.8663 20.0699 21.0133 19.5295 21.3074C18.9934 21.6015 18.5999 22.0296 18.3492 22.5918C18.0984 23.154 17.973 23.846 17.973 24.672C17.973 25.4331 18.1027 26.0991 18.3665 26.67C18.6302 27.2408 19.0366 27.6776 19.5857 27.9933C20.1348 28.3047 20.8655 28.4604 21.7777 28.4604C22.6035 28.4604 23.2823 28.3133 23.8228 28.0193C24.3589 27.7252 24.7523 27.2884 25.0031 26.7089C25.2539 26.1294 25.3792 25.4245 25.3792 24.5985C25.3792 23.8373 25.2495 23.1757 24.9944 22.6135C24.7394 22.0513 24.3329 21.6188 23.7752 21.3204C23.2175 21.022 22.4868 20.8706 21.5745 20.8706V20.8663Z" fill="#E58257"/>
<path d="M29.2963 19.478H33.4555V21.0133H26.9702V20.17L28.6391 19.6251L30.0615 17.5449H30.135L30.0226 20.6933V26.4494C30.0226 26.9986 30.0918 27.4224 30.2302 27.7165C30.3685 28.0106 30.5804 28.2052 30.8657 28.309C31.1511 28.4084 31.5099 28.4603 31.9336 28.4603C32.2579 28.4603 32.5519 28.443 32.8156 28.4041C33.0794 28.3652 33.3172 28.3219 33.529 28.2744V29.775C33.3431 29.8356 33.1183 29.8918 32.8632 29.935C32.6081 29.9783 32.2839 29.9999 31.8991 29.9999C31.1857 29.9999 30.5847 29.8918 30.0918 29.6712C29.5989 29.455 29.2314 29.0917 28.985 28.5857C28.7429 28.0798 28.6261 27.3878 28.6391 26.5142L28.7342 20.2694L29.2963 19.4824V19.478Z" fill="#E58257"/>
<path d="M43.1446 27.5394V29.0962C42.6431 29.3211 42.068 29.5244 41.4195 29.706C40.771 29.8877 40.0706 29.9828 39.3226 29.9958C38.2849 29.9958 37.3943 29.7968 36.6506 29.3946C35.907 28.9968 35.3406 28.4086 34.9558 27.6432C34.5667 26.8734 34.3765 25.922 34.3765 24.7846C34.3765 23.8332 34.5235 23.0115 34.8175 22.3195C35.1115 21.6276 35.4963 21.0611 35.9805 20.6243C36.4604 20.1875 37.0052 19.8588 37.6105 19.6382C38.2158 19.4177 38.8427 19.3096 39.4955 19.3096C40.4208 19.3096 41.1731 19.4653 41.7524 19.7766C42.3318 20.088 42.7598 20.5421 43.0365 21.1346C43.3132 21.727 43.4473 22.4579 43.4473 23.3185C43.4473 23.4699 43.4473 23.6256 43.4386 23.7856C43.43 23.9499 43.417 24.1186 43.3911 24.2916L35.0509 24.2353L35.0899 23.2969L42.9068 23.2234L42.215 23.7467C42.2626 23.0461 42.1632 22.4839 41.9167 22.06C41.666 21.6362 41.2985 21.3249 40.8099 21.1302C40.3213 20.9356 39.7463 20.8405 39.0848 20.8405C38.3239 20.8405 37.6926 20.9702 37.1997 21.2254C36.7069 21.4805 36.3394 21.8654 36.1016 22.3801C35.8638 22.8947 35.747 23.5304 35.747 24.2916C35.747 25.1305 35.8767 25.8614 36.1318 26.4842C36.3869 27.1069 36.7804 27.5913 37.3122 27.9372C37.8439 28.2789 38.5314 28.4519 39.3831 28.4519C40.0576 28.4519 40.7234 28.3654 41.3806 28.1881C42.0378 28.0151 42.6258 27.7945 43.1533 27.5307L43.1446 27.5394Z" fill="#E58257"/>
</svg>
