<svg width="51" height="86" viewBox="0 0 51 86" fill="none" xmlns="http://www.w3.org/2000/svg">
<path d="M48.7324 65.3537C49.3853 56.8261 50.1178 48.2985 50.7628 39.7709C51.1291 34.5556 49.5764 32.9551 46.1287 31.3149C43.3021 30.025 40.5312 28.6396 37.7922 27.1745C34.9496 25.6935 33.2378 23.3924 32.3539 20.3986V19.1565C33.389 18.9494 33.7075 18.5752 33.7075 17.556C33.7075 11.9745 33.7235 6.39288 33.7075 0.811306C33.7075 0.373379 33.3492 0.0230381 32.9193 0.0150758C27.9747 -0.000848854 23.0221 -0.00881116 18.0775 0.0150758C17.6396 0.0150758 17.2893 0.373379 17.2813 0.811306C17.2733 6.39288 17.2813 11.9745 17.2813 17.556C17.2813 18.5832 17.5998 18.9494 18.6349 19.1565V20.3986C17.9103 22.3573 17.1061 24.5231 15.3465 25.7811C12.91 27.3815 10.378 28.7908 7.72653 30.0011C4.59734 31.4264 0.671929 32.7402 0.2977 36.7133C0.0906804 38.1147 0.210115 39.4922 0.321587 40.8856C0.632117 44.8827 0.926722 48.8877 1.24521 52.8848C1.67518 58.2991 2.12107 63.7135 2.54307 69.1358C2.90137 73.6744 3.22783 78.2129 3.60206 82.7514C3.75334 84.5907 5.31395 85.992 7.16917 86C19.3833 86 15.872 86 28.0861 86L48.7244 65.3617L48.7324 65.3537Z" fill="url(#paint0_linear_237_26070)"/>
<path d="M28.094 85.9903C28.094 80.8705 28.0621 75.7508 28.094 70.639C28.1099 68.4255 30.0607 66.1244 32.2185 65.575C32.8714 65.4077 33.5322 65.3281 34.209 65.3281C39.0501 65.344 43.8912 65.344 48.7323 65.344C48.3103 67.6452 47.307 69.6994 45.6907 71.3556C41.8688 75.281 37.9911 79.1586 34.0657 82.9726C32.4255 84.573 30.3871 85.5603 28.102 85.9744L28.094 85.9903Z" fill="#E6E6DD"/>
<defs>
<linearGradient id="paint0_linear_237_26070" x1="6.27624" y1="30.8167" x2="46.4096" y2="70.2333" gradientUnits="userSpaceOnUse">
<stop stop-color="#F0996E"/>
<stop offset="1" stop-color="#E58257"/>
</linearGradient>
</defs>
</svg>
