<svg width="20" height="20" viewBox="0 0 20 20" fill="none" xmlns="http://www.w3.org/2000/svg">
<path d="M10.0013 1.66797C13.223 1.66797 15.8346 4.33887 15.8346 7.63359C15.8346 9.0203 15.372 10.2965 14.5959 11.3096L10.7201 17.9136C10.648 18.0364 10.5458 18.1387 10.423 18.2107C10.0544 18.4269 9.5878 18.3277 9.33656 17.9946L9.28254 17.9136L5.41049 11.3145C4.63214 10.3007 4.16797 9.02257 4.16797 7.63359C4.16797 4.33887 6.77964 1.66797 10.0013 1.66797ZM10.0013 4.16797C8.16035 4.16797 6.66797 5.66035 6.66797 7.5013C6.66797 9.34225 8.16035 10.8346 10.0013 10.8346C11.8423 10.8346 13.3346 9.34225 13.3346 7.5013C13.3346 5.66035 11.8423 4.16797 10.0013 4.16797Z" fill="#E58257"/>
</svg>
