<svg width="20" height="20" viewBox="0 0 20 20" fill="none" xmlns="http://www.w3.org/2000/svg">
<path d="M18 10C18 14.4183 14.4183 18 10 18C5.58172 18 2 14.4183 2 10C2 5.58172 5.58172 2 10 2C14.4183 2 18 5.58172 18 10Z" fill="#E58257"/>
<path d="M9.52167 5.42969H10.5617V6.10999C11.3502 6.23368 12.116 6.59445 12.5045 7.15106L11.4988 7.77982C11.316 7.50152 10.9617 7.31598 10.5617 7.22321V9.49089L11.2017 9.70735C13.8074 10.5217 13.1331 13.7273 10.5617 13.9747V14.5725H9.52167V13.9335C8.45882 13.7582 7.5331 13.1604 7.14453 12.2739L8.26453 11.841C8.48167 12.3358 8.95025 12.6656 9.52167 12.8099V10.2949C9.06453 10.1093 8.69882 9.94442 8.51596 9.83104C7.52167 9.22289 7.16739 8.1509 7.65882 7.22321C7.97882 6.62537 8.69882 6.21307 9.52167 6.08938V5.42969ZM8.75596 7.68706C8.53882 8.11998 8.72167 8.63536 9.19025 8.92397C9.25882 8.9652 9.3731 9.02705 9.52167 9.08889V7.2026C9.16739 7.28506 8.88167 7.46029 8.75596 7.68706ZM10.5617 12.8615C11.796 12.6347 12.1274 11.1401 10.8017 10.7484C10.7217 10.7175 10.6417 10.6969 10.5617 10.666V12.8615Z" fill="white"/>
</svg>
