<svg width="10" height="10" viewBox="0 0 10 10" fill="none" xmlns="http://www.w3.org/2000/svg">
<path d="M6.66671 7.08333C6.97497 7.08333 7.24414 7.25071 7.3883 7.49955L8.75004 7.5C8.98016 7.5 9.16671 7.68655 9.16671 7.91667C9.16671 8.14679 8.98016 8.33333 8.75004 8.33333L7.38854 8.33336C7.24445 8.58243 6.97515 8.75 6.66671 8.75C6.35827 8.75 6.08897 8.58243 5.94488 8.33336L1.25004 8.33333C1.01992 8.33333 0.833374 8.14679 0.833374 7.91667C0.833374 7.68655 1.01992 7.5 1.25004 7.5L5.94512 7.49955C6.08927 7.25071 6.35844 7.08333 6.66671 7.08333ZM3.33337 4.16667C3.64164 4.16667 3.91081 4.33405 4.05496 4.58288L8.75004 4.58333C8.98016 4.58333 9.16671 4.76988 9.16671 5C9.16671 5.23012 8.98016 5.41667 8.75004 5.41667L4.0552 5.4167C3.91111 5.66576 3.64181 5.83333 3.33337 5.83333C3.02494 5.83333 2.75563 5.66576 2.61154 5.4167L1.25004 5.41667C1.01992 5.41667 0.833374 5.23012 0.833374 5C0.833374 4.76988 1.01992 4.58333 1.25004 4.58333L2.61179 4.58288C2.75594 4.33405 3.02511 4.16667 3.33337 4.16667ZM6.66671 1.25C6.97497 1.25 7.24414 1.41738 7.3883 1.66622L8.75004 1.66667C8.98016 1.66667 9.16671 1.85321 9.16671 2.08333C9.16671 2.31345 8.98016 2.5 8.75004 2.5L7.38854 2.50003C7.24445 2.7491 6.97515 2.91667 6.66671 2.91667C6.35827 2.91667 6.08897 2.7491 5.94488 2.50003L1.25004 2.5C1.01992 2.5 0.833374 2.31345 0.833374 2.08333C0.833374 1.85321 1.01992 1.66667 1.25004 1.66667L5.94512 1.66622C6.08927 1.41738 6.35844 1.25 6.66671 1.25Z" fill="#E58257"/>
</svg>
