<svg width="20" height="20" viewBox="0 0 20 20" fill="none" xmlns="http://www.w3.org/2000/svg">
<path d="M18.332 3.33203C18.7923 3.33203 19.1654 3.70513 19.1654 4.16536V15.832C19.1654 16.2923 18.7923 16.6654 18.332 16.6654H1.66536C1.20513 16.6654 0.832031 16.2923 0.832031 15.832V4.16536C0.832031 3.70513 1.20513 3.33203 1.66536 3.33203H18.332ZM17.4987 4.99786H2.4987V14.9979H6.44953L9.35172 10.9849C9.39585 10.9238 9.4811 10.9101 9.54213 10.9543C9.55389 10.9628 9.56423 10.9731 9.57273 10.9849L10.9662 12.9129L13.6354 8.76052C13.6761 8.69716 13.7604 8.67881 13.8238 8.71953C13.8402 8.7301 13.8542 8.74408 13.8648 8.76052L17.4987 14.4145V4.99786ZM5.41536 5.83203C6.10572 5.83203 6.66536 6.39168 6.66536 7.08203C6.66536 7.77239 6.10572 8.33203 5.41536 8.33203C4.72501 8.33203 4.16536 7.77239 4.16536 7.08203C4.16536 6.39168 4.72501 5.83203 5.41536 5.83203Z" fill="#E58257"/>
</svg>
