<svg width="15" height="15" viewBox="0 0 15 15" fill="none" xmlns="http://www.w3.org/2000/svg">
<path d="M7.5 1.25C9.91625 1.25 11.875 3.25317 11.875 5.72422C11.875 6.76425 11.528 7.72141 10.946 8.48121L8.03907 13.4342C7.98505 13.5263 7.90835 13.603 7.81627 13.657C7.53982 13.8192 7.18987 13.7448 7.00144 13.495L6.96093 13.4342L4.05689 8.48493C3.47312 7.72453 3.125 6.76595 3.125 5.72422C3.125 3.25317 5.08375 1.25 7.5 1.25ZM7.5 3.125C6.11929 3.125 5 4.24429 5 5.625C5 7.00571 6.11929 8.125 7.5 8.125C8.88071 8.125 10 7.00571 10 5.625C10 4.24429 8.88071 3.125 7.5 3.125Z" fill="#E58257"/>
</svg>
