<svg width="8" height="9" viewBox="0 0 8 9" fill="none" xmlns="http://www.w3.org/2000/svg">
<path d="M3.94412 4.69444C5.90468 4.69444 7.50032 6.25685 7.55384 8.20448L7.55523 8.30556H6.83301C6.83301 6.71007 5.53961 5.41667 3.94412 5.41667C2.37873 5.41667 1.10415 6.66172 1.0566 8.21557L1.05523 8.30556H0.333008C0.333008 6.31119 1.94976 4.69444 3.94412 4.69444ZM3.94412 0C5.14074 0 6.11079 0.97005 6.11079 2.16667C6.11079 3.36328 5.14074 4.33333 3.94412 4.33333C2.7475 4.33333 1.77745 3.36328 1.77745 2.16667C1.77745 0.97005 2.7475 0 3.94412 0ZM3.94412 0.722222C3.14637 0.722222 2.49967 1.36892 2.49967 2.16667C2.49967 2.96441 3.14637 3.61111 3.94412 3.61111C4.74186 3.61111 5.38856 2.96441 5.38856 2.16667C5.38856 1.36892 4.74186 0.722222 3.94412 0.722222Z" fill="#101010"/>
</svg>
