<svg width="31" height="30" viewBox="0 0 31 30" fill="none" xmlns="http://www.w3.org/2000/svg">
<path d="M14.375 3.75C19.9669 3.75 24.5 8.3071 24.5 13.9286C24.5 16.629 23.4539 19.0838 21.7469 20.9058C21.7711 20.9188 21.793 20.9347 21.8145 20.9515L21.9205 21.0455L26.4205 25.5693C26.8598 26.011 26.8598 26.7271 26.4205 27.1688C26.015 27.5764 25.3768 27.6078 24.9355 27.2628L24.8295 27.1688L20.3295 22.6449C20.2331 22.5481 20.1579 22.438 20.1038 22.3204C18.4764 23.4476 16.5023 24.1071 14.375 24.1071C8.78312 24.1071 4.25 19.55 4.25 13.9286C4.25 8.3071 8.78312 3.75 14.375 3.75ZM14.375 6.0119C10.0258 6.0119 6.5 9.55632 6.5 13.9286C6.5 18.3008 10.0258 21.8452 14.375 21.8452C18.7242 21.8452 22.25 18.3008 22.25 13.9286C22.25 9.55632 18.7242 6.0119 14.375 6.0119Z" fill="#E58257"/>
</svg>
