<svg width="29" height="28" viewBox="0 0 29 28" fill="none" xmlns="http://www.w3.org/2000/svg">
<path d="M13.039 1.67342L9.3617 9.02147L1.23731 10.2479C0.970829 10.2881 0.724558 10.4136 0.535402 10.6055L0.424786 10.734C0.0565312 11.2253 0.0988576 11.9254 0.548345 12.3683L6.40057 18.1334L5.0562 26.2421C5.01209 26.5079 5.05533 26.7809 5.17944 27.0201L5.26007 27.1544C5.61139 27.6646 6.29586 27.8452 6.85993 27.5525L14.1538 23.7689L21.4477 27.5525C21.6869 27.6766 21.9599 27.7199 22.2257 27.6758L22.3784 27.6406C22.9721 27.4641 23.3554 26.869 23.2514 26.2421L21.9056 18.1334L27.7593 12.3683C27.9512 12.1791 28.0767 11.9329 28.1169 11.6664L28.1306 11.5103C28.1463 10.8911 27.6987 10.3427 27.0703 10.2479L18.9445 9.02147L15.2686 1.67342C15.148 1.43241 14.9525 1.23696 14.7115 1.11638C14.0959 0.808358 13.3471 1.05775 13.039 1.67342ZM14.1538 4.08671L17.248 10.2729L17.3319 10.4181C17.5468 10.7424 17.8902 10.9639 18.28 11.0227L25.1175 12.0532L20.1923 16.9082L20.0802 17.0329C19.8381 17.3375 19.7336 17.7325 19.7981 18.1214L20.9292 24.942L14.7916 21.7589L14.6384 21.6908C14.2739 21.5546 13.8659 21.5773 13.516 21.7589L7.377 24.942L8.50948 18.1214L8.52687 17.9547C8.54374 17.566 8.39607 17.1849 8.11528 16.9082L3.18876 12.0532L10.0276 11.0227C10.4731 10.9555 10.858 10.6758 11.0596 10.2729L14.1538 4.08671Z" fill="#F0996E"/>
</svg>
