<svg width="15" height="14" viewBox="0 0 15 14" fill="none" xmlns="http://www.w3.org/2000/svg">
<path d="M0.00626159 5.67528C-0.0513882 5.17213 0.294796 4.76887 0.807366 4.7409C2.10905 4.62874 3.40988 4.50402 4.71186 4.39529C4.87796 4.3813 4.95644 4.32451 5.02008 4.17325C5.53008 2.96175 6.04694 1.75281 6.56949 0.546447C6.81037 -0.14478 7.75702 -0.208708 8.04955 0.518478C8.5801 1.75738 9.11008 2.99685 9.63464 4.23832C9.67887 4.34277 9.73738 4.37816 9.84298 4.38758C11.1541 4.5026 12.4646 4.62132 13.7754 4.73833C14.2483 4.73205 14.4258 5.00118 14.6185 5.38989V5.67528C14.5215 5.82883 14.4527 6.01405 14.3225 6.13049C13.3228 7.02378 12.3125 7.90565 11.3005 8.78523C11.1969 8.87513 11.1698 8.95076 11.2009 9.08518C11.5045 10.3943 11.8016 11.7048 12.0982 13.0154C12.1935 13.4366 11.9874 13.8216 11.6007 13.9543C11.3436 14.0425 11.109 13.9868 10.8804 13.8496C9.73624 13.1618 8.58895 12.4791 7.44594 11.7896C7.34577 11.7291 7.27585 11.7334 7.17881 11.7916C6.03095 12.4822 4.88024 13.168 3.73095 13.8567C3.42501 14.0402 3.12106 14.0576 2.82226 13.8496C2.55227 13.6615 2.4521 13.3467 2.53372 12.9877C2.83196 11.6774 3.12791 10.3666 3.43015 9.05722C3.4564 8.94391 3.43157 8.87884 3.34567 8.80436C2.38103 7.96444 1.42211 7.11796 0.456901 6.27861C0.260834 6.10823 0.0818913 5.93214 0.00597619 5.67528H0.00626159Z" fill="#fff"/>
</svg>
