<svg width="20" height="20" viewBox="0 0 20 20" fill="none" xmlns="http://www.w3.org/2000/svg">
<path fill-rule="evenodd" clip-rule="evenodd" d="M10.0013 18.3346C14.6037 18.3346 18.3346 14.6037 18.3346 10.0013C18.3346 5.39893 14.6037 1.66797 10.0013 1.66797C5.39893 1.66797 1.66797 5.39893 1.66797 10.0013C1.66797 14.6037 5.39893 18.3346 10.0013 18.3346ZM14.1734 6.62581C13.8298 6.30868 13.2942 6.3301 12.9771 6.67366L8.49536 11.5289L7.00199 10.0355C6.67139 9.70489 6.13538 9.70489 5.80478 10.0355C5.47417 10.3661 5.47417 10.9021 5.80478 11.2327L7.92118 13.3491C8.26116 13.6891 8.81571 13.678 9.14184 13.3247L14.2212 7.82207C14.5383 7.47851 14.5169 6.94293 14.1734 6.62581Z" fill="#E58257"/>
</svg>
