<svg width="10" height="11" viewBox="0 0 10 11" fill="none" xmlns="http://www.w3.org/2000/svg">
<path fill-rule="evenodd" clip-rule="evenodd" d="M5.85959 1.80058C5.51277 1.67339 5.14002 1.79595 4.92537 2.05769L3.07106 4.31881C2.97894 4.27532 2.86853 4.25 2.74984 4.25H0.999837C0.677671 4.25 0.416504 4.43655 0.416504 4.66667V8.83333C0.416504 9.06345 0.677671 9.25 0.999837 9.25H2.74984C3.02234 9.25 3.25119 9.11654 3.31528 8.93613L3.70211 9.16255C3.79988 9.21977 3.91175 9.25 4.02577 9.25H7.77834C8.08038 9.25 8.33979 9.04059 8.39631 8.75115L9.1552 4.86457C9.22904 4.48641 8.93186 4.13607 8.53723 4.13607H6.49411C6.54655 4.00295 6.59787 3.85493 6.63867 3.7013C6.70734 3.44271 6.75653 3.13099 6.70202 2.83613C6.65397 2.57615 6.57946 2.34347 6.42056 2.15599C6.25852 1.96483 6.05054 1.8706 5.85959 1.80058ZM3.33861 5.30237L5.57812 2.57154C5.72076 2.62494 5.75615 2.65617 5.77414 2.67739C5.79581 2.70296 5.83743 2.76962 5.87656 2.98133C5.89969 3.10643 5.88297 3.2842 5.8267 3.49611C5.77224 3.70119 5.69016 3.90401 5.61646 4.06396C5.43561 4.45645 5.71095 4.9543 6.19896 4.9543H8.28382L7.60482 8.43177H4.08385L3.33861 7.99558V5.30237ZM2.49984 5.08333H1.24984V8.41667H2.49984V5.08333ZM0.999837 5.08333H1.00035C0.998311 5.08352 0.998087 5.08333 0.999837 5.08333ZM0.999837 8.41667C0.998087 8.41667 0.998311 8.41648 1.00035 8.41667H0.999837Z" fill="#666666"/>
</svg>
