<svg width="9" height="8" viewBox="0 0 9 8" fill="none" xmlns="http://www.w3.org/2000/svg">
<path d="M5.37416 0.231183C5.02103 0.101688 4.6415 0.226475 4.42296 0.49297L2.09367 3.33326C2.00282 3.44405 1.95332 3.5817 1.95332 3.72358V6.65675C1.95332 6.87622 2.07136 7.07961 2.26429 7.19253L3.17745 7.72701C3.277 7.78527 3.3909 7.81605 3.507 7.81605H7.32779C7.63532 7.81605 7.89945 7.60284 7.957 7.30814L8.72968 3.35089C8.80486 2.96585 8.50228 2.60914 8.10048 2.60914H6.02022C6.07361 2.4736 6.12586 2.32289 6.1674 2.16646C6.23732 1.90317 6.2874 1.58579 6.23191 1.28556C6.18298 1.02086 6.10712 0.783948 5.94532 0.593062C5.78034 0.398419 5.56858 0.302478 5.37416 0.231183Z" fill="white"/>
<path d="M0.510893 2.72514C0.370312 2.72514 0.256348 2.91508 0.256348 3.14938V7.39181C0.256348 7.62611 0.370312 7.81605 0.510893 7.81605H1.27453C1.41511 7.81605 1.52907 7.62611 1.52907 7.39181V3.14938C1.52907 2.91508 1.41511 2.72514 1.27453 2.72514H0.510893Z" fill="white"/>
</svg>
